<?xml version="1.0" encoding="utf-8"?>
<!-- Generator: Adobe Illustrator 21.0.0, SVG Export Plug-In . SVG Version: 6.00 Build 0)  -->
<svg version="1.1" id="Calque_1" xmlns="http://www.w3.org/2000/svg" xmlns:xlink="http://www.w3.org/1999/xlink" x="0px" y="0px"
	 viewBox="0 0 68.208 68.208" style="enable-background:new 0 0 68.208 68.208;" xml:space="preserve">
<style type="text/css">
	.st0{fill:#00A651;}
	.st1{fill:#FAFCFF;}
	.st2{font-family:'OpenSans-Semibold';}
	.st3{font-size:10px;}
</style>
<rect class="st0" width="68.208" height="68.208"/>
<g id="Pause_24_">
	<g>
		<text transform="matrix(1 0 0 1 10.4445 56.785)" class="st1 st2 st3">Démarrer</text>
	</g>
	<path class="st1" d="M34.024,8.424c-8.793,0-15.922,7.128-15.922,15.922c0,8.793,7.128,15.922,15.922,15.922
		c8.793,0,15.922-7.128,15.922-15.922C49.945,15.552,42.817,8.424,34.024,8.424z M42.626,24.64l-13.545,7.423
		c-0.261,0.143-0.579-0.046-0.579-0.343V16.874c0-0.297,0.318-0.486,0.579-0.343l13.545,7.423
		C42.897,24.103,42.897,24.492,42.626,24.64z"/>
</g>
</svg>
