<?xml version="1.0" encoding="utf-8"?>
<!-- Generator: Adobe Illustrator 21.0.0, SVG Export Plug-In . SVG Version: 6.00 Build 0)  -->
<svg version="1.1" id="Calque_1" xmlns="http://www.w3.org/2000/svg" xmlns:xlink="http://www.w3.org/1999/xlink" x="0px" y="0px"
	 viewBox="0 0 68.208 68.208" style="enable-background:new 0 0 68.208 68.208;" xml:space="preserve">
<style type="text/css">
	.st0{fill:#F7941D;}
	.st1{fill:none;stroke:#FFFFFF;stroke-width:1.5;stroke-linecap:round;stroke-linejoin:round;}
	.st2{fill:#FFFFFF;}
	.st3{fill:none;stroke:#FFFFFF;stroke-width:0.75;stroke-miterlimit:10;}
</style>
<rect x="0" transform="matrix(-1.836970e-16 1 -1 -1.836970e-16 68.2083 7.105427e-15)" class="st0" width="68.208" height="68.208"/>
<g id="Désinfection_12_">
	<g>
		<g id="process_93_">
			<g>
				<g>
					<path class="st1" d="M20.157,24.722c-0.317-1.187-0.486-2.434-0.486-3.721c0-2.618,0.7-5.073,1.923-7.188
						c1.038-1.794,2.453-3.343,4.136-4.539"/>
					<g>
						<path class="st2" d="M30.32,7.114c-1.75,1.847-3.74,4.508-4.681,6.752l-0.466-4.223l-3.059-2.947
							C24.466,7.323,27.789,7.373,30.32,7.114z"/>
					</g>
				</g>
			</g>
			<g>
				<g>
					<path class="st1" d="M44.221,31.153c-2.602,2.608-6.2,4.222-10.176,4.222c-2.137,0-4.165-0.466-5.988-1.303"/>
					<g>
						<path class="st2" d="M23.895,31.178c2.474,0.595,5.773,0.99,8.188,0.685l-3.426,2.512l-1.026,4.122
							C26.998,36.145,25.382,33.242,23.895,31.178z"/>
					</g>
				</g>
			</g>
			<g>
				<g>
					<path class="st1" d="M37.769,7.114c3.717,0.994,6.84,3.441,8.724,6.695c1.015,1.752,1.67,3.738,1.865,5.858"/>
					<g>
						<path class="st2" d="M47.933,24.722c-0.725-2.439-2.035-5.493-3.509-7.429L48.314,19l4.081-1.176
							C50.677,19.547,48.974,22.4,47.933,24.722z"/>
					</g>
				</g>
			</g>
		</g>
		<g id="symbole_61_">
			<g>
				<path class="st2" d="M36.435,24.568h-0.986V21.86h-2.769v2.708h-0.982v-6.007h0.982v2.457h2.769v-2.457h0.986V24.568z"/>
			</g>
			<rect x="27.646" y="14.145" class="st3" width="13.384" height="14.197"/>
			<g>
				<g>
					<path class="st2" d="M38.989,17.192h-0.282v-1.134c0-0.135,0.004-0.243,0.01-0.322c-0.019,0.019-0.041,0.041-0.067,0.063
						c-0.027,0.023-0.117,0.097-0.27,0.221l-0.142-0.179l0.516-0.406h0.235V17.192z"/>
				</g>
			</g>
		</g>
	</g>
	<g>
		<g>
			<path class="st2" d="M19.831,50.445h-1.431l-3.511-5.688h-0.039l0.024,0.317c0.045,0.605,0.068,1.159,0.068,1.66v3.711h-1.06
				v-7.139H15.3l3.501,5.659h0.029c-0.006-0.074-0.02-0.348-0.039-0.817c-0.02-0.471-0.029-0.838-0.029-1.102v-3.74h1.069V50.445z"
				/>
			<path class="st2" d="M23.952,50.543c-0.84,0-1.497-0.245-1.97-0.734c-0.474-0.49-0.71-1.165-0.71-2.024
				c0-0.882,0.22-1.575,0.659-2.08c0.439-0.504,1.043-0.757,1.812-0.757c0.713,0,1.276,0.217,1.689,0.649
				c0.414,0.434,0.62,1.029,0.62,1.787v0.62h-3.599c0.016,0.524,0.158,0.927,0.425,1.209c0.267,0.281,0.643,0.422,1.128,0.422
				c0.319,0,0.616-0.03,0.891-0.09c0.275-0.061,0.57-0.16,0.886-0.301v0.933c-0.28,0.134-0.563,0.229-0.85,0.283
				C24.647,50.515,24.32,50.543,23.952,50.543z M23.742,45.816c-0.365,0-0.657,0.116-0.876,0.347
				c-0.22,0.231-0.351,0.568-0.393,1.011h2.451c-0.006-0.445-0.114-0.783-0.322-1.013S24.107,45.816,23.742,45.816z"/>
			<path class="st2" d="M29.367,49.615c0.28,0,0.56-0.044,0.84-0.132v0.864c-0.127,0.056-0.291,0.102-0.491,0.14
				c-0.2,0.037-0.408,0.056-0.623,0.056c-1.087,0-1.631-0.572-1.631-1.719v-2.91h-0.737v-0.508l0.791-0.42l0.391-1.143h0.708v1.201
				h1.538v0.869h-1.538v2.891c0,0.277,0.069,0.481,0.208,0.613S29.143,49.615,29.367,49.615z"/>
			<path class="st2" d="M33.298,49.615c0.28,0,0.56-0.044,0.84-0.132v0.864c-0.127,0.056-0.291,0.102-0.491,0.14
				c-0.2,0.037-0.408,0.056-0.623,0.056c-1.087,0-1.631-0.572-1.631-1.719v-2.91h-0.737v-0.508l0.791-0.42l0.391-1.143h0.708v1.201
				h1.538v0.869h-1.538v2.891c0,0.277,0.069,0.481,0.208,0.613S33.073,49.615,33.298,49.615z"/>
			<path class="st2" d="M40.007,47.735c0,0.883-0.226,1.571-0.679,2.065c-0.452,0.495-1.082,0.742-1.89,0.742
				c-0.504,0-0.95-0.113-1.338-0.342c-0.387-0.228-0.685-0.555-0.894-0.981c-0.208-0.426-0.313-0.921-0.313-1.484
				c0-0.875,0.225-1.559,0.674-2.051c0.449-0.491,1.083-0.737,1.899-0.737c0.781,0,1.4,0.252,1.855,0.755
				C39.78,46.205,40.007,46.883,40.007,47.735z M36.076,47.735c0,1.247,0.461,1.87,1.382,1.87c0.912,0,1.367-0.623,1.367-1.87
				c0-1.233-0.459-1.851-1.377-1.851c-0.481,0-0.831,0.16-1.047,0.479C36.185,46.682,36.076,47.139,36.076,47.735z"/>
			<path class="st2" d="M40.505,45.045h1.25l1.099,3.062c0.166,0.437,0.277,0.847,0.332,1.23h0.039
				c0.029-0.179,0.083-0.396,0.161-0.651c0.078-0.256,0.492-1.469,1.24-3.641h1.24l-2.31,6.118c-0.42,1.123-1.119,1.685-2.1,1.685
				c-0.254,0-0.501-0.027-0.742-0.083v-0.908c0.173,0.039,0.37,0.059,0.591,0.059c0.554,0,0.942-0.32,1.167-0.962l0.2-0.508
				L40.505,45.045z"/>
			<path class="st2" d="M49.045,50.543c-0.84,0-1.496-0.245-1.97-0.734c-0.474-0.49-0.711-1.165-0.711-2.024
				c0-0.882,0.22-1.575,0.659-2.08c0.439-0.504,1.044-0.757,1.812-0.757c0.713,0,1.276,0.217,1.689,0.649
				c0.414,0.434,0.62,1.029,0.62,1.787v0.62h-3.599c0.017,0.524,0.158,0.927,0.425,1.209c0.268,0.281,0.644,0.422,1.128,0.422
				c0.319,0,0.616-0.03,0.892-0.09c0.274-0.061,0.57-0.16,0.886-0.301v0.933c-0.279,0.134-0.563,0.229-0.85,0.283
				C49.74,50.515,49.413,50.543,49.045,50.543z M48.835,45.816c-0.364,0-0.656,0.116-0.876,0.347
				c-0.22,0.231-0.351,0.568-0.394,1.011h2.451c-0.006-0.445-0.113-0.783-0.322-1.013C49.487,45.931,49.2,45.816,48.835,45.816z"/>
			<path class="st2" d="M55.188,44.947c0.231,0,0.422,0.017,0.571,0.049l-0.112,1.069c-0.162-0.039-0.332-0.059-0.508-0.059
				c-0.459,0-0.831,0.15-1.115,0.449c-0.285,0.3-0.428,0.688-0.428,1.167v2.822h-1.147v-5.4h0.898l0.151,0.952h0.059
				c0.18-0.322,0.413-0.577,0.701-0.767C54.546,45.042,54.856,44.947,55.188,44.947z"/>
			<path class="st2" d="M19.316,62.445l-0.229-0.752h-0.039c-0.26,0.329-0.522,0.553-0.786,0.672
				c-0.264,0.118-0.602,0.178-1.016,0.178c-0.531,0-0.945-0.144-1.243-0.43c-0.298-0.286-0.447-0.691-0.447-1.216
				c0-0.557,0.207-0.977,0.62-1.26c0.414-0.283,1.043-0.438,1.89-0.464l0.933-0.029v-0.288c0-0.345-0.081-0.603-0.242-0.774
				c-0.161-0.17-0.411-0.256-0.75-0.256c-0.277,0-0.542,0.041-0.796,0.122s-0.498,0.178-0.732,0.288l-0.371-0.82
				c0.293-0.153,0.614-0.27,0.962-0.35c0.348-0.079,0.677-0.119,0.986-0.119c0.687,0,1.205,0.149,1.555,0.449
				s0.525,0.77,0.525,1.411v3.638H19.316z M17.983,56.386c-0.225-0.169-0.509-0.414-0.852-0.735c-0.343-0.32-0.593-0.574-0.75-0.764
				v-0.103h1.333c0.124,0.229,0.292,0.49,0.505,0.786s0.392,0.527,0.535,0.693v0.122H17.983z M17.607,61.664
				c0.417,0,0.751-0.116,1.003-0.35c0.252-0.232,0.378-0.559,0.378-0.979v-0.469l-0.693,0.029c-0.541,0.02-0.934,0.109-1.179,0.271
				c-0.246,0.16-0.369,0.407-0.369,0.739c0,0.241,0.072,0.427,0.215,0.56C17.106,61.597,17.321,61.664,17.607,61.664z"/>
			<path class="st2" d="M25.483,62.445h-1.147v-7.598h1.147V62.445z"/>
			<path class="st2" d="M28.042,55.306l0.073,0.107c-0.172,0.681-0.459,1.46-0.859,2.339h-0.83c0.225-0.94,0.387-1.756,0.488-2.446
				H28.042z"/>
			<path class="st2" d="M32.431,62.445l-0.229-0.752h-0.039c-0.26,0.329-0.522,0.553-0.786,0.672
				c-0.264,0.118-0.602,0.178-1.016,0.178c-0.531,0-0.945-0.144-1.243-0.43s-0.447-0.691-0.447-1.216c0-0.557,0.207-0.977,0.62-1.26
				s1.043-0.438,1.89-0.464l0.933-0.029v-0.288c0-0.345-0.081-0.603-0.242-0.774c-0.161-0.17-0.411-0.256-0.75-0.256
				c-0.277,0-0.542,0.041-0.796,0.122s-0.498,0.178-0.732,0.288l-0.371-0.82c0.293-0.153,0.614-0.27,0.962-0.35
				c0.348-0.079,0.677-0.119,0.986-0.119c0.687,0,1.205,0.149,1.555,0.449s0.525,0.77,0.525,1.411v3.638H32.431z M30.722,61.664
				c0.417,0,0.751-0.116,1.003-0.35c0.252-0.232,0.378-0.559,0.378-0.979v-0.469l-0.693,0.029c-0.541,0.02-0.934,0.109-1.179,0.271
				c-0.246,0.16-0.369,0.407-0.369,0.739c0,0.241,0.072,0.427,0.215,0.56C30.221,61.597,30.436,61.664,30.722,61.664z"/>
			<path class="st2" d="M37.031,62.543c-0.817,0-1.438-0.238-1.863-0.715c-0.425-0.478-0.637-1.162-0.637-2.054
				c0-0.908,0.222-1.606,0.667-2.095s1.087-0.732,1.927-0.732c0.569,0,1.082,0.105,1.538,0.317l-0.347,0.923
				c-0.485-0.188-0.886-0.283-1.201-0.283c-0.935,0-1.401,0.62-1.401,1.86c0,0.605,0.116,1.061,0.349,1.364
				c0.233,0.305,0.574,0.457,1.023,0.457c0.511,0,0.994-0.127,1.45-0.381v1.001c-0.205,0.12-0.424,0.207-0.657,0.259
				C37.646,62.516,37.364,62.543,37.031,62.543z"/>
			<path class="st2" d="M39.737,55.614c0-0.205,0.056-0.362,0.168-0.474c0.112-0.11,0.272-0.166,0.481-0.166
				c0.201,0,0.358,0.056,0.471,0.166c0.112,0.111,0.169,0.269,0.169,0.474c0,0.195-0.057,0.349-0.169,0.462
				c-0.112,0.111-0.27,0.168-0.471,0.168c-0.209,0-0.369-0.057-0.481-0.168C39.792,55.963,39.737,55.809,39.737,55.614z
				 M40.952,62.445h-1.147v-5.4h1.147V62.445z"/>
			<path class="st2" d="M44.414,62.543c-0.674,0-1.2-0.244-1.577-0.732c-0.378-0.488-0.566-1.174-0.566-2.056
				c0-0.886,0.191-1.575,0.573-2.067c0.383-0.494,0.912-0.74,1.59-0.74c0.709,0,1.25,0.262,1.621,0.786h0.059
				c-0.056-0.388-0.083-0.693-0.083-0.918v-1.968h1.152v7.598h-0.898l-0.2-0.708h-0.054C45.662,62.274,45.123,62.543,44.414,62.543z
				 M44.722,61.615c0.472,0,0.815-0.133,1.03-0.398c0.215-0.265,0.325-0.695,0.332-1.291v-0.161c0-0.681-0.111-1.164-0.332-1.45
				c-0.222-0.286-0.568-0.43-1.04-0.43c-0.404,0-0.715,0.164-0.933,0.49c-0.219,0.328-0.327,0.794-0.327,1.399
				c0,0.599,0.105,1.056,0.317,1.37C43.981,61.458,44.298,61.615,44.722,61.615z"/>
			<path class="st2" d="M51.182,62.543c-0.84,0-1.497-0.245-1.971-0.734c-0.474-0.49-0.71-1.165-0.71-2.024
				c0-0.882,0.22-1.575,0.659-2.08s1.043-0.757,1.812-0.757c0.713,0,1.275,0.217,1.689,0.649c0.413,0.433,0.62,1.028,0.62,1.787
				v0.62h-3.599c0.016,0.524,0.157,0.927,0.425,1.209c0.267,0.281,0.643,0.422,1.128,0.422c0.318,0,0.616-0.03,0.891-0.09
				c0.275-0.061,0.57-0.161,0.887-0.301v0.933c-0.28,0.134-0.563,0.228-0.85,0.283C51.876,62.515,51.549,62.543,51.182,62.543z
				 M50.972,57.816c-0.365,0-0.657,0.115-0.877,0.347s-0.351,0.568-0.393,1.011h2.451c-0.007-0.446-0.114-0.783-0.322-1.014
				C51.622,57.931,51.336,57.816,50.972,57.816z"/>
		</g>
	</g>
</g>
</svg>
