<?xml version="1.0" encoding="utf-8"?>
<!-- Generator: Adobe Illustrator 21.0.0, SVG Export Plug-In . SVG Version: 6.00 Build 0)  -->
<svg version="1.1" id="Calque_1" xmlns="http://www.w3.org/2000/svg" xmlns:xlink="http://www.w3.org/1999/xlink" x="0px" y="0px"
	 viewBox="0 0 68.208 68.208" style="enable-background:new 0 0 68.208 68.208;" xml:space="preserve">
<style type="text/css">
	.st0{fill:#F7941D;}
	.st1{fill:none;stroke:#FFFFFF;stroke-width:1.5;stroke-linecap:round;stroke-linejoin:round;}
	.st2{fill:#FFFFFF;}
	.st3{fill:none;stroke:#FFFFFF;stroke-width:0.75;stroke-miterlimit:10;}
</style>
<rect x="0" y="0" transform="matrix(-1.836970e-16 1 -1 -1.836970e-16 68.2083 4.618528e-13)" class="st0" width="68.208" height="68.208"/>
<g id="Nettoyage_11_">
	<g>
		<g id="process_94_">
			<g>
				<g>
					<path class="st1" d="M20.157,24.722c-0.317-1.187-0.486-2.434-0.486-3.721c0-2.618,0.7-5.073,1.923-7.188
						c1.038-1.794,2.453-3.343,4.136-4.539"/>
					<g>
						<path class="st2" d="M30.32,7.114c-1.75,1.847-3.74,4.508-4.681,6.752l-0.466-4.223l-3.059-2.947
							C24.466,7.323,27.789,7.373,30.32,7.114z"/>
					</g>
				</g>
			</g>
			<g>
				<g>
					<path class="st1" d="M44.221,31.153c-2.602,2.608-6.201,4.222-10.176,4.222c-2.137,0-4.165-0.466-5.988-1.303"/>
					<g>
						<path class="st2" d="M23.895,31.178c2.474,0.595,5.773,0.99,8.188,0.685l-3.426,2.512l-1.026,4.122
							C26.998,36.145,25.382,33.242,23.895,31.178z"/>
					</g>
				</g>
			</g>
			<g>
				<g>
					<path class="st1" d="M37.769,7.114c3.717,0.994,6.84,3.441,8.724,6.695c1.015,1.752,1.67,3.738,1.865,5.858"/>
					<g>
						<path class="st2" d="M47.933,24.722c-0.725-2.439-2.035-5.493-3.509-7.429L48.314,19l4.081-1.176
							C50.677,19.547,48.974,22.4,47.933,24.722z"/>
					</g>
				</g>
			</g>
		</g>
		<g id="symbole_62_">
			<g>
				<path class="st2" d="M34.126,24.568h-1.204l-2.954-4.787h-0.033l0.021,0.267c0.039,0.509,0.058,0.975,0.058,1.397v3.123h-0.892
					v-6.007h1.191l2.946,4.762h0.025c-0.005-0.063-0.017-0.292-0.033-0.688c-0.017-0.396-0.025-0.705-0.025-0.927v-3.147h0.9V24.568
					z"/>
				<path class="st2" d="M38.451,24.568l-0.192-0.633h-0.033c-0.219,0.277-0.439,0.465-0.661,0.565s-0.507,0.15-0.854,0.15
					c-0.447,0-0.795-0.12-1.046-0.361c-0.25-0.241-0.376-0.582-0.376-1.023c0-0.469,0.174-0.822,0.521-1.06s0.878-0.369,1.59-0.391
					l0.785-0.024v-0.243c0-0.29-0.067-0.507-0.203-0.651c-0.136-0.144-0.346-0.216-0.631-0.216c-0.232,0-0.456,0.034-0.67,0.103
					c-0.214,0.069-0.419,0.149-0.616,0.243l-0.313-0.69c0.247-0.129,0.517-0.227,0.81-0.294c0.293-0.067,0.57-0.101,0.83-0.101
					c0.578,0,1.014,0.126,1.309,0.378c0.295,0.252,0.441,0.648,0.441,1.188v3.061H38.451z M37.014,23.91
					c0.351,0,0.632-0.098,0.845-0.294c0.212-0.196,0.318-0.47,0.318-0.824v-0.395l-0.584,0.025
					c-0.454,0.016-0.785,0.092-0.992,0.228c-0.207,0.135-0.311,0.343-0.311,0.622c0,0.203,0.061,0.36,0.182,0.471
					C36.592,23.855,36.773,23.91,37.014,23.91z"/>
			</g>
			<rect x="27.646" y="14.145" class="st3" width="13.384" height="14.197"/>
			<g>
				<g>
					<path class="st2" d="M38.288,17.192h-0.282v-1.134c0-0.135,0.003-0.243,0.01-0.322c-0.019,0.019-0.041,0.041-0.068,0.063
						c-0.026,0.023-0.116,0.097-0.27,0.221l-0.142-0.179l0.517-0.406h0.235V17.192z"/>
					<path class="st2" d="M39.692,17.192h-0.282v-1.134c0-0.135,0.004-0.243,0.01-0.322c-0.019,0.019-0.041,0.041-0.067,0.063
						c-0.027,0.023-0.117,0.097-0.27,0.221l-0.142-0.179l0.516-0.406h0.235V17.192z"/>
				</g>
			</g>
		</g>
	</g>
	<g>
		<g>
			<path class="st2" d="M19.831,50.445h-1.431l-3.511-5.688h-0.039l0.024,0.317c0.045,0.605,0.068,1.159,0.068,1.66v3.711h-1.06
				v-7.139H15.3l3.501,5.659h0.029c-0.006-0.074-0.02-0.348-0.039-0.817c-0.02-0.471-0.029-0.838-0.029-1.102v-3.74h1.069V50.445z"
				/>
			<path class="st2" d="M23.952,50.543c-0.84,0-1.497-0.245-1.97-0.734c-0.474-0.49-0.71-1.165-0.71-2.024
				c0-0.882,0.22-1.575,0.659-2.08c0.439-0.504,1.043-0.757,1.812-0.757c0.713,0,1.276,0.217,1.689,0.649
				c0.414,0.434,0.62,1.029,0.62,1.787v0.62h-3.599c0.016,0.524,0.158,0.927,0.425,1.209c0.267,0.281,0.643,0.422,1.128,0.422
				c0.319,0,0.616-0.03,0.891-0.09c0.275-0.061,0.57-0.16,0.886-0.301v0.933c-0.28,0.134-0.563,0.229-0.85,0.283
				C24.647,50.515,24.32,50.543,23.952,50.543z M23.742,45.816c-0.365,0-0.657,0.116-0.876,0.347
				c-0.22,0.231-0.351,0.568-0.393,1.011h2.451c-0.006-0.445-0.114-0.783-0.322-1.013S24.107,45.816,23.742,45.816z"/>
			<path class="st2" d="M29.367,49.615c0.28,0,0.56-0.044,0.84-0.132v0.864c-0.127,0.056-0.291,0.102-0.491,0.14
				c-0.2,0.037-0.408,0.056-0.623,0.056c-1.087,0-1.631-0.572-1.631-1.719v-2.91h-0.737v-0.508l0.791-0.42l0.391-1.143h0.708v1.201
				h1.538v0.869h-1.538v2.891c0,0.277,0.069,0.481,0.208,0.613S29.143,49.615,29.367,49.615z"/>
			<path class="st2" d="M33.298,49.615c0.28,0,0.56-0.044,0.84-0.132v0.864c-0.127,0.056-0.291,0.102-0.491,0.14
				c-0.2,0.037-0.408,0.056-0.623,0.056c-1.087,0-1.631-0.572-1.631-1.719v-2.91h-0.737v-0.508l0.791-0.42l0.391-1.143h0.708v1.201
				h1.538v0.869h-1.538v2.891c0,0.277,0.069,0.481,0.208,0.613S33.073,49.615,33.298,49.615z"/>
			<path class="st2" d="M40.007,47.735c0,0.883-0.226,1.571-0.679,2.065c-0.452,0.495-1.082,0.742-1.89,0.742
				c-0.504,0-0.95-0.113-1.338-0.342c-0.387-0.228-0.685-0.555-0.894-0.981c-0.208-0.426-0.313-0.921-0.313-1.484
				c0-0.875,0.225-1.559,0.674-2.051c0.449-0.491,1.083-0.737,1.899-0.737c0.781,0,1.4,0.252,1.855,0.755
				C39.78,46.205,40.007,46.883,40.007,47.735z M36.076,47.735c0,1.247,0.461,1.87,1.382,1.87c0.912,0,1.367-0.623,1.367-1.87
				c0-1.233-0.459-1.851-1.377-1.851c-0.481,0-0.831,0.16-1.047,0.479C36.185,46.682,36.076,47.139,36.076,47.735z"/>
			<path class="st2" d="M40.505,45.045h1.25l1.099,3.062c0.166,0.437,0.277,0.847,0.332,1.23h0.039
				c0.029-0.179,0.083-0.396,0.161-0.651c0.078-0.256,0.492-1.469,1.24-3.641h1.24l-2.31,6.118c-0.42,1.123-1.119,1.685-2.1,1.685
				c-0.254,0-0.501-0.027-0.742-0.083v-0.908c0.173,0.039,0.37,0.059,0.591,0.059c0.554,0,0.942-0.32,1.167-0.962l0.2-0.508
				L40.505,45.045z"/>
			<path class="st2" d="M49.045,50.543c-0.84,0-1.496-0.245-1.97-0.734c-0.474-0.49-0.711-1.165-0.711-2.024
				c0-0.882,0.22-1.575,0.659-2.08c0.439-0.504,1.044-0.757,1.812-0.757c0.713,0,1.276,0.217,1.689,0.649
				c0.414,0.434,0.62,1.029,0.62,1.787v0.62h-3.599c0.017,0.524,0.158,0.927,0.425,1.209c0.268,0.281,0.644,0.422,1.128,0.422
				c0.319,0,0.616-0.03,0.892-0.09c0.274-0.061,0.57-0.16,0.886-0.301v0.933c-0.279,0.134-0.563,0.229-0.85,0.283
				C49.74,50.515,49.413,50.543,49.045,50.543z M48.835,45.816c-0.364,0-0.656,0.116-0.876,0.347
				c-0.22,0.231-0.351,0.568-0.394,1.011h2.451c-0.006-0.445-0.113-0.783-0.322-1.013C49.487,45.931,49.2,45.816,48.835,45.816z"/>
			<path class="st2" d="M55.188,44.947c0.231,0,0.422,0.017,0.571,0.049l-0.112,1.069c-0.162-0.039-0.332-0.059-0.508-0.059
				c-0.459,0-0.831,0.15-1.115,0.449c-0.285,0.3-0.428,0.688-0.428,1.167v2.822h-1.147v-5.4h0.898l0.151,0.952h0.059
				c0.18-0.322,0.413-0.577,0.701-0.767C54.546,45.042,54.856,44.947,55.188,44.947z"/>
			<path class="st2" d="M14.189,62.445l-0.229-0.752h-0.039c-0.26,0.329-0.522,0.553-0.786,0.672
				c-0.264,0.118-0.602,0.178-1.016,0.178c-0.531,0-0.945-0.144-1.243-0.43s-0.447-0.691-0.447-1.216c0-0.557,0.207-0.977,0.62-1.26
				s1.043-0.438,1.89-0.464l0.933-0.029v-0.288c0-0.345-0.081-0.603-0.242-0.774c-0.161-0.17-0.411-0.256-0.75-0.256
				c-0.277,0-0.542,0.041-0.796,0.122s-0.498,0.178-0.732,0.288l-0.371-0.82c0.293-0.153,0.614-0.27,0.962-0.35
				c0.348-0.079,0.677-0.119,0.986-0.119c0.687,0,1.205,0.149,1.555,0.449s0.525,0.77,0.525,1.411v3.638H14.189z M12.856,56.386
				c-0.225-0.169-0.509-0.414-0.852-0.735c-0.343-0.32-0.593-0.574-0.75-0.764v-0.103h1.333c0.124,0.229,0.292,0.49,0.505,0.786
				s0.392,0.527,0.535,0.693v0.122H12.856z M12.48,61.664c0.417,0,0.751-0.116,1.003-0.35c0.252-0.232,0.378-0.559,0.378-0.979
				v-0.469l-0.693,0.029c-0.541,0.02-0.934,0.109-1.179,0.271c-0.246,0.16-0.369,0.407-0.369,0.739c0,0.241,0.072,0.427,0.215,0.56
				C11.979,61.597,12.194,61.664,12.48,61.664z"/>
			<path class="st2" d="M20.356,62.445h-1.147v-7.598h1.147V62.445z"/>
			<path class="st2" d="M25.376,62.445l-0.229-0.752h-0.039c-0.26,0.329-0.522,0.553-0.786,0.672
				c-0.264,0.118-0.602,0.178-1.016,0.178c-0.531,0-0.945-0.144-1.243-0.43s-0.447-0.691-0.447-1.216c0-0.557,0.207-0.977,0.62-1.26
				s1.043-0.438,1.89-0.464l0.933-0.029v-0.288c0-0.345-0.081-0.603-0.242-0.774c-0.161-0.17-0.411-0.256-0.75-0.256
				c-0.277,0-0.542,0.041-0.796,0.122s-0.498,0.178-0.732,0.288l-0.371-0.82c0.293-0.153,0.614-0.27,0.962-0.35
				c0.348-0.079,0.677-0.119,0.986-0.119c0.687,0,1.205,0.149,1.555,0.449s0.525,0.77,0.525,1.411v3.638H25.376z M23.667,61.664
				c0.417,0,0.751-0.116,1.003-0.35c0.252-0.232,0.378-0.559,0.378-0.979v-0.469l-0.693,0.029c-0.541,0.02-0.934,0.109-1.179,0.271
				c-0.246,0.16-0.369,0.407-0.369,0.739c0,0.241,0.072,0.427,0.215,0.56C23.165,61.597,23.38,61.664,23.667,61.664z"/>
			<path class="st2" d="M34.023,60.907c0,0.527-0.192,0.932-0.576,1.214c-0.384,0.281-0.934,0.422-1.65,0.422
				c-0.719,0-1.297-0.109-1.733-0.327v-0.991c0.635,0.293,1.226,0.439,1.772,0.439c0.707,0,1.06-0.213,1.06-0.64
				c0-0.137-0.039-0.251-0.117-0.342s-0.207-0.186-0.386-0.283s-0.428-0.208-0.747-0.332c-0.622-0.241-1.042-0.481-1.262-0.723
				s-0.33-0.554-0.33-0.938c0-0.462,0.187-0.821,0.559-1.077c0.373-0.255,0.88-0.383,1.521-0.383c0.635,0,1.235,0.129,1.802,0.386
				l-0.371,0.864c-0.583-0.241-1.073-0.361-1.47-0.361c-0.605,0-0.908,0.173-0.908,0.518c0,0.169,0.079,0.313,0.237,0.43
				s0.502,0.278,1.033,0.483c0.446,0.173,0.77,0.33,0.972,0.474s0.352,0.309,0.449,0.496C33.974,60.423,34.023,60.646,34.023,60.907
				z"/>
			<path class="st2" d="M40.054,59.735c0,0.882-0.227,1.57-0.679,2.065c-0.453,0.495-1.083,0.742-1.89,0.742
				c-0.505,0-0.951-0.114-1.338-0.342c-0.388-0.228-0.686-0.555-0.894-0.981s-0.313-0.921-0.313-1.484
				c0-0.876,0.225-1.56,0.674-2.051c0.449-0.491,1.082-0.737,1.899-0.737c0.781,0,1.399,0.252,1.855,0.754
				C39.825,58.205,40.054,58.883,40.054,59.735z M36.123,59.735c0,1.247,0.46,1.87,1.382,1.87c0.911,0,1.367-0.623,1.367-1.87
				c0-1.233-0.459-1.851-1.377-1.851c-0.482,0-0.831,0.159-1.048,0.479C36.232,58.682,36.123,59.139,36.123,59.735z"/>
			<path class="st2" d="M45.181,62.445l-0.161-0.708h-0.059c-0.16,0.251-0.387,0.447-0.682,0.591
				c-0.294,0.144-0.631,0.215-1.008,0.215c-0.654,0-1.143-0.163-1.465-0.488s-0.483-0.818-0.483-1.479v-3.53h1.157v3.33
				c0,0.413,0.084,0.724,0.254,0.93c0.169,0.207,0.435,0.311,0.796,0.311c0.481,0,0.836-0.145,1.062-0.432
				c0.227-0.289,0.34-0.771,0.34-1.448v-2.69h1.152v5.4H45.181z"/>
			<path class="st2" d="M49.541,62.543c-0.674,0-1.2-0.244-1.577-0.732c-0.378-0.488-0.566-1.174-0.566-2.056
				c0-0.886,0.191-1.575,0.573-2.067c0.383-0.494,0.912-0.74,1.59-0.74c0.709,0,1.25,0.262,1.621,0.786h0.059
				c-0.056-0.388-0.083-0.693-0.083-0.918v-1.968h1.152v7.598h-0.898l-0.2-0.708h-0.054C50.789,62.274,50.25,62.543,49.541,62.543z
				 M49.849,61.615c0.472,0,0.815-0.133,1.03-0.398c0.215-0.265,0.325-0.695,0.332-1.291v-0.161c0-0.681-0.111-1.164-0.332-1.45
				c-0.222-0.286-0.568-0.43-1.04-0.43c-0.404,0-0.715,0.164-0.933,0.49c-0.219,0.328-0.327,0.794-0.327,1.399
				c0,0.599,0.105,1.056,0.317,1.37C49.108,61.458,49.425,61.615,49.849,61.615z"/>
			<path class="st2" d="M56.309,62.543c-0.84,0-1.497-0.245-1.971-0.734c-0.474-0.49-0.71-1.165-0.71-2.024
				c0-0.882,0.22-1.575,0.659-2.08s1.043-0.757,1.812-0.757c0.713,0,1.275,0.217,1.689,0.649c0.413,0.433,0.62,1.028,0.62,1.787
				v0.62H54.81c0.016,0.524,0.157,0.927,0.425,1.209c0.267,0.281,0.643,0.422,1.128,0.422c0.318,0,0.616-0.03,0.891-0.09
				c0.275-0.061,0.57-0.161,0.887-0.301v0.933c-0.28,0.134-0.563,0.228-0.85,0.283C57.003,62.515,56.676,62.543,56.309,62.543z
				 M56.099,57.816c-0.365,0-0.657,0.115-0.877,0.347s-0.351,0.568-0.393,1.011h2.451c-0.007-0.446-0.114-0.783-0.322-1.014
				C56.749,57.931,56.463,57.816,56.099,57.816z"/>
		</g>
	</g>
</g>
</svg>
