<?xml version="1.0" encoding="utf-8"?>
<!-- Generator: Adobe Illustrator 21.0.0, SVG Export Plug-In . SVG Version: 6.00 Build 0)  -->
<svg version="1.1" id="Calque_1" xmlns="http://www.w3.org/2000/svg" xmlns:xlink="http://www.w3.org/1999/xlink" x="0px" y="0px"
	 viewBox="0 0 68.208 68.208" style="enable-background:new 0 0 68.208 68.208;" xml:space="preserve">
<style type="text/css">
	.st0{fill:#F7941D;}
	.st1{display:none;}
	.st2{display:inline;}
	.st3{fill:none;stroke:#FFFFFF;stroke-width:1.5;stroke-linecap:round;stroke-linejoin:round;}
	.st4{fill:#FFFFFF;}
	.st5{fill:none;stroke:#FFFFFF;stroke-width:0.75;stroke-miterlimit:10;}
	.st6{fill:#ED1C24;}
</style>
<rect x="0" y="0" transform="matrix(-1.836970e-16 1 -1 -1.836970e-16 68.2083 1.371347e-12)" class="st0" width="68.208" height="68.208"/>
<g id="Désinfection_15_">
	<g class="st1">
		<g id="process_99_" class="st2">
			<g>
				<g>
					<path class="st3" d="M20.157,24.722c-0.317-1.187-0.486-2.434-0.486-3.721c0-2.618,0.7-5.073,1.923-7.188
						c1.038-1.794,2.453-3.343,4.136-4.539"/>
					<g>
						<path class="st4" d="M30.32,7.114c-1.75,1.847-3.74,4.508-4.681,6.753l-0.466-4.223l-3.059-2.947
							C24.466,7.323,27.789,7.373,30.32,7.114z"/>
					</g>
				</g>
			</g>
			<g>
				<g>
					<path class="st3" d="M44.221,31.153c-2.602,2.608-6.2,4.222-10.176,4.222c-2.137,0-4.165-0.466-5.988-1.303"/>
					<g>
						<path class="st4" d="M23.895,31.178c2.474,0.595,5.773,0.99,8.188,0.685l-3.426,2.512l-1.026,4.122
							C26.998,36.145,25.382,33.242,23.895,31.178z"/>
					</g>
				</g>
			</g>
			<g>
				<g>
					<path class="st3" d="M37.769,7.114c3.717,0.994,6.84,3.441,8.724,6.695c1.015,1.752,1.67,3.738,1.865,5.858"/>
					<g>
						<path class="st4" d="M47.933,24.722c-0.725-2.439-2.035-5.492-3.509-7.429L48.314,19l4.081-1.176
							C50.677,19.548,48.974,22.4,47.933,24.722z"/>
					</g>
				</g>
			</g>
		</g>
		<g id="symbole_65_" class="st2">
			<g>
				<path class="st4" d="M36.435,24.568h-0.986V21.86h-2.769v2.708h-0.982v-6.007h0.982v2.457h2.769v-2.457h0.986V24.568z"/>
			</g>
			<rect x="27.646" y="14.145" class="st5" width="13.384" height="14.197"/>
			<g>
				<g>
					<path class="st4" d="M38.989,17.192h-0.282v-1.134c0-0.135,0.004-0.243,0.01-0.322c-0.019,0.019-0.041,0.041-0.067,0.063
						c-0.027,0.023-0.117,0.097-0.27,0.221l-0.142-0.179l0.516-0.406h0.235V17.192z"/>
				</g>
			</g>
		</g>
	</g>
	<g>
		<g>
			<path class="st4" d="M13.464,52.557c0,1.179-0.327,2.079-0.981,2.703c-0.654,0.623-1.597,0.935-2.827,0.935H7.658v-7.139h2.207
				c1.136,0,2.02,0.307,2.651,0.918C13.148,50.587,13.464,51.448,13.464,52.557z M12.234,52.597c0-1.709-0.799-2.563-2.397-2.563
				H8.825v5.181h0.83C11.374,55.214,12.234,54.342,12.234,52.597z"/>
			<path class="st4" d="M17.234,56.293c-0.84,0-1.497-0.245-1.97-0.734c-0.474-0.49-0.71-1.165-0.71-2.024
				c0-0.882,0.22-1.575,0.659-2.08c0.439-0.504,1.043-0.757,1.812-0.757c0.713,0,1.276,0.217,1.689,0.649
				c0.414,0.434,0.62,1.029,0.62,1.787v0.62h-3.599c0.016,0.524,0.158,0.927,0.425,1.209c0.267,0.281,0.643,0.422,1.128,0.422
				c0.319,0,0.616-0.03,0.891-0.09c0.275-0.061,0.57-0.16,0.886-0.301v0.933c-0.28,0.134-0.563,0.229-0.85,0.283
				C17.928,56.265,17.601,56.293,17.234,56.293z M17.024,51.566c-0.365,0-0.657,0.116-0.876,0.347
				c-0.22,0.231-0.351,0.568-0.393,1.011h2.451c-0.006-0.445-0.114-0.783-0.322-1.013S17.388,51.566,17.024,51.566z M16.291,50.136
				v-0.122c0.186-0.228,0.377-0.481,0.574-0.762c0.197-0.279,0.353-0.519,0.466-0.718h1.333v0.103
				c-0.169,0.199-0.422,0.455-0.759,0.77c-0.337,0.313-0.621,0.558-0.852,0.729H16.291z"/>
			<path class="st4" d="M24.265,54.657c0,0.527-0.192,0.932-0.576,1.214c-0.384,0.281-0.934,0.422-1.65,0.422
				c-0.719,0-1.297-0.108-1.733-0.327v-0.991c0.635,0.293,1.226,0.439,1.772,0.439c0.707,0,1.06-0.213,1.06-0.64
				c0-0.137-0.039-0.25-0.117-0.342c-0.078-0.091-0.207-0.186-0.386-0.283s-0.428-0.208-0.747-0.332
				c-0.622-0.24-1.042-0.481-1.262-0.723c-0.22-0.24-0.33-0.553-0.33-0.938c0-0.462,0.187-0.821,0.559-1.076
				c0.373-0.256,0.88-0.384,1.521-0.384c0.635,0,1.235,0.129,1.802,0.386l-0.371,0.864c-0.583-0.24-1.073-0.361-1.47-0.361
				c-0.605,0-0.908,0.173-0.908,0.518c0,0.17,0.079,0.313,0.237,0.43s0.502,0.278,1.033,0.483c0.446,0.173,0.77,0.331,0.972,0.474
				c0.202,0.144,0.352,0.309,0.449,0.496C24.216,54.173,24.265,54.397,24.265,54.657z"/>
			<path class="st4" d="M25.437,49.364c0-0.205,0.056-0.362,0.168-0.474c0.112-0.11,0.272-0.166,0.481-0.166
				c0.202,0,0.359,0.056,0.471,0.166c0.112,0.111,0.168,0.269,0.168,0.474c0,0.195-0.056,0.35-0.168,0.462s-0.27,0.168-0.471,0.168
				c-0.208,0-0.369-0.056-0.481-0.168S25.437,49.559,25.437,49.364z M26.653,56.195h-1.147v-5.4h1.147V56.195z"/>
			<path class="st4" d="M33.044,56.195h-1.152v-3.32c0-0.416-0.084-0.728-0.251-0.933s-0.434-0.308-0.798-0.308
				c-0.485,0-0.84,0.144-1.064,0.43c-0.225,0.287-0.337,0.767-0.337,1.44v2.69h-1.147v-5.4h0.898l0.161,0.708h0.059
				c0.163-0.257,0.394-0.455,0.693-0.596c0.299-0.14,0.631-0.21,0.996-0.21c1.295,0,1.943,0.659,1.943,1.978V56.195z"/>
			<path class="st4" d="M37.351,51.664h-1.318v4.531H34.88v-4.531h-0.889v-0.537l0.889-0.352v-0.352c0-0.638,0.15-1.11,0.449-1.418
				c0.3-0.308,0.757-0.462,1.372-0.462c0.404,0,0.801,0.067,1.191,0.2l-0.303,0.869c-0.283-0.091-0.553-0.137-0.811-0.137
				c-0.26,0-0.45,0.081-0.568,0.242c-0.119,0.161-0.179,0.402-0.179,0.725v0.352h1.318V51.664z"/>
			<path class="st4" d="M40.627,56.293c-0.84,0-1.496-0.245-1.97-0.734c-0.474-0.49-0.711-1.165-0.711-2.024
				c0-0.882,0.22-1.575,0.659-2.08c0.439-0.504,1.044-0.757,1.812-0.757c0.713,0,1.276,0.217,1.689,0.649
				c0.414,0.434,0.62,1.029,0.62,1.787v0.62h-3.599c0.017,0.524,0.158,0.927,0.425,1.209c0.268,0.281,0.644,0.422,1.128,0.422
				c0.319,0,0.616-0.03,0.892-0.09c0.274-0.061,0.57-0.16,0.886-0.301v0.933c-0.279,0.134-0.563,0.229-0.85,0.283
				C41.323,56.265,40.995,56.293,40.627,56.293z M40.417,51.566c-0.364,0-0.656,0.116-0.876,0.347
				c-0.22,0.231-0.351,0.568-0.394,1.011h2.451c-0.006-0.445-0.113-0.783-0.322-1.013C41.069,51.681,40.782,51.566,40.417,51.566z"
				/>
			<path class="st4" d="M46.208,56.293c-0.816,0-1.438-0.238-1.862-0.715c-0.425-0.478-0.638-1.161-0.638-2.054
				c0-0.908,0.223-1.606,0.667-2.095s1.086-0.732,1.926-0.732c0.57,0,1.083,0.106,1.538,0.317l-0.347,0.923
				c-0.484-0.188-0.885-0.283-1.201-0.283c-0.934,0-1.401,0.62-1.401,1.86c0,0.605,0.116,1.061,0.35,1.365
				c0.232,0.304,0.573,0.456,1.022,0.456c0.512,0,0.995-0.127,1.45-0.381v1.001c-0.205,0.121-0.424,0.207-0.656,0.259
				C46.823,56.267,46.54,56.293,46.208,56.293z"/>
			<path class="st4" d="M50.993,55.365c0.28,0,0.561-0.044,0.84-0.132v0.864c-0.127,0.056-0.29,0.102-0.49,0.14
				c-0.2,0.037-0.408,0.056-0.623,0.056c-1.087,0-1.631-0.572-1.631-1.719v-2.91h-0.737v-0.508l0.791-0.42l0.391-1.143h0.708v1.201
				h1.538v0.869h-1.538v2.891c0,0.277,0.069,0.481,0.208,0.613C50.587,55.3,50.769,55.365,50.993,55.365z"/>
			<path class="st4" d="M55.271,56.293c-0.84,0-1.496-0.245-1.97-0.734c-0.474-0.49-0.711-1.165-0.711-2.024
				c0-0.882,0.22-1.575,0.659-2.08c0.439-0.504,1.044-0.757,1.812-0.757c0.713,0,1.276,0.217,1.689,0.649
				c0.414,0.434,0.62,1.029,0.62,1.787v0.62h-3.599c0.017,0.524,0.158,0.927,0.425,1.209c0.268,0.281,0.644,0.422,1.128,0.422
				c0.319,0,0.616-0.03,0.892-0.09c0.274-0.061,0.57-0.16,0.886-0.301v0.933c-0.279,0.134-0.563,0.229-0.85,0.283
				C55.966,56.265,55.639,56.293,55.271,56.293z M55.061,51.566c-0.364,0-0.656,0.116-0.876,0.347
				c-0.22,0.231-0.351,0.568-0.394,1.011h2.451c-0.006-0.445-0.113-0.783-0.322-1.013C55.712,51.681,55.426,51.566,55.061,51.566z"
				/>
			<path class="st4" d="M61.413,50.697c0.231,0,0.422,0.017,0.571,0.049l-0.112,1.069c-0.162-0.039-0.332-0.059-0.508-0.059
				c-0.459,0-0.831,0.15-1.115,0.449c-0.285,0.3-0.428,0.688-0.428,1.167v2.822h-1.147v-5.4h0.898l0.151,0.952h0.059
				c0.18-0.322,0.413-0.577,0.701-0.767C60.772,50.792,61.081,50.697,61.413,50.697z"/>
		</g>
	</g>
</g>
<path class="st4" d="M29.854,11.731c0.413-0.236,1.137,0.095,1.288,0.549c0.341,0.871-0.341,1.838,0.133,2.652
	c0.474,0.815,1.042,0.928,1.383,0.796c0.341-0.133,0.878-0.879,0.491-1.567c-0.382-0.678-0.59-0.637-0.39-1.198
	s1.141-0.447,1.246,0.181c0.105,0.628-0.552,0.751-0.342,1.626c0.209,0.875,0.685,1.056,1.36,0.713
	c0.675-0.342,0.922-1.731,0.58-2.891s0.2-1.674,0.903-1.598c0.704,0.076,1.056,0.693,0.894,1.326
	c-0.162,0.633-1.122,0.918-1.17,2.155s0.447,1.493,1.398,1.902s1.807,1.303,2.634,0.105c0.561-0.694,0.219-1.503,0.77-1.997
	s1.398-0.219,1.626,0.352s0.01,1.179-0.713,1.407c-0.723,0.228-1.931,0.732-1.636,1.702c0.2,0.666,0.504,0.761,0.789,1.312
	c0.285,0.552,0.656,1.398,1.455,1.455c0.799,0.057,1.664-0.399,2.159-1.208s1.845-0.333,1.826,0.447
	c-0.019,0.78-0.475,1.341-1.426,1.151c-0.951-0.19-1.655-0.247-2.301,0.418c-0.647,0.666-0.399,1.426,0.219,1.655
	c0.618,0.228,1.255-0.219,1.56-0.371c0.304-0.152,1.189-0.485,1.236,0.371s-0.903,0.675-1.312,0.523
	c-0.409-0.152-1.531-0.371-1.873,0.39c-0.342,0.761,0.561,1.569,1.579,1.617c1.018,0.048,1.379-0.618,2.149-0.257
	c0.77,0.361,0.732,1.208,0.295,1.588c-0.437,0.38-1.084,0.466-2.016-0.447c-0.59-0.571-1.988-0.561-2.435,0.238
	c-0.447,0.799-1.759,2.843-1.06,3.756c0.699,0.913,2.339,0.428,2.967,0.87c0.628,0.442,0.699,1.455-0.257,1.783
	c-0.956,0.328-1.626-1.298-2.696-1.783c-1.07-0.485-2.083-0.67-2.882,0.014c-0.799,0.685-1.084,1.498-0.285,2.539
	c0.542,0.694,1.426,0.961,0.989,1.921c-0.437,0.961-1.854,0.552-1.902-0.219s0.409-3.309-1.293-3.29s-3.229-0.038-3.186,1.645
	c0.043,1.683,0.927,2.354-0.556,2.882c-0.913,0.328-1.469-0.827-1.027-1.555s1.626-1.669,0.656-3.167
	c-0.456-0.785-1.484,0-1.541,0.713c-0.057,0.713,0.114,1.341-0.499,1.526c-0.613,0.185-1.113-0.499-0.785-0.999
	s1.74-0.984,0.97-2.026c-0.77-1.041-2.297,0.485-2.653,1.341c-0.357,0.856-0.185,1.598-1.027,1.769
	c-0.842,0.171-1.498-0.599-1.213-1.341s1.498-0.485,2.354-1.64c0.856-1.155,0.67-1.769,0.3-2.111
	c-0.371-0.342-1.184-0.128-1.683,0.67c-0.499,0.799-1.07,1.17-1.498,0.571c-0.428-0.599,0.157-1.013,0.97-1.155
	c0.813-0.143,1.669-0.999,1.27-1.498c-0.399-0.499-1.583-1.027-2.739,0.243s-2.026,0.685-2.168,0s0.414-1.384,1.655-1.127
	c1.241,0.257,2.468-0.385,2.382-1.555c-0.086-1.17,0.128-2.71-0.956-2.981c-1.084-0.271-1.612-0.1-2.354,0.114
	c-0.742,0.214-1.74-0.456-1.27-1.484c0.471-1.027,1.555-0.143,1.94,0.157c0.385,0.3,1.897,0.87,2.696,0.3
	c0.799-0.571,0.271-1.583-0.67-1.612c-0.941-0.029-1.312-0.271-1.141-0.941c0.171-0.67,0.927-0.428,1.327,0.1
	c0.399,0.528,1.098,1.07,1.526,0.414c0.428-0.656,0.856-1.94,0-2.496s-2.511,0.471-3.224-1.098s1.541-2.111,2.339-1.113
	c0.799,0.999,1.755,3.167,2.824,2.425c1.07-0.742,2.268-0.999,1.84-2.311s-0.999-1.426-1.198-1.74
	C29.255,13.025,28.998,12.219,29.854,11.731z"/>
<path class="st6" d="M34.058,5.466c-10.218,0-18.532,8.314-18.532,18.532s8.314,18.531,18.532,18.531
	c10.219,0,18.532-8.313,18.532-18.531S44.277,5.466,34.058,5.466z M18.557,23.998c0-3.697,1.305-7.093,3.474-9.76l21.841,21.746
	c-2.675,2.194-6.093,3.514-9.814,3.514C25.511,39.498,18.557,32.545,18.557,23.998z M46.02,33.845L24.161,12.081
	c2.687-2.235,6.137-3.583,9.897-3.583c8.547,0,15.501,6.954,15.501,15.5C49.559,27.734,48.23,31.166,46.02,33.845z"/>
</svg>
