<?xml version="1.0" encoding="UTF-8" standalone="no"?>
<!-- Generator: Adobe Illustrator 21.0.0, SVG Export Plug-In . SVG Version: 6.00 Build 0)  -->

<svg
   xmlns:dc="http://purl.org/dc/elements/1.1/"
   xmlns:cc="http://creativecommons.org/ns#"
   xmlns:rdf="http://www.w3.org/1999/02/22-rdf-syntax-ns#"
   xmlns:svg="http://www.w3.org/2000/svg"
   xmlns="http://www.w3.org/2000/svg"
   xmlns:sodipodi="http://sodipodi.sourceforge.net/DTD/sodipodi-0.dtd"
   xmlns:inkscape="http://www.inkscape.org/namespaces/inkscape"
   version="1.1"
   id="Calque_1"
   x="0px"
   y="0px"
   viewBox="0 0 68.208 68.208"
   style="enable-background:new 0 0 68.208 68.208;"
   xml:space="preserve"
   sodipodi:docname="E.svg"
   inkscape:version="0.92.5 (2060ec1f9f, 2020-04-08)"><metadata
   id="metadata84"><rdf:RDF><cc:Work
       rdf:about=""><dc:format>image/svg+xml</dc:format><dc:type
         rdf:resource="http://purl.org/dc/dcmitype/StillImage" /></cc:Work></rdf:RDF></metadata><defs
   id="defs82" /><sodipodi:namedview
   pagecolor="#ffffff"
   bordercolor="#666666"
   borderopacity="1"
   objecttolerance="10"
   gridtolerance="10"
   guidetolerance="10"
   inkscape:pageopacity="0"
   inkscape:pageshadow="2"
   inkscape:window-width="1920"
   inkscape:window-height="1032"
   id="namedview80"
   showgrid="false"
   inkscape:zoom="3.4600047"
   inkscape:cx="35.260068"
   inkscape:cy="32.369898"
   inkscape:window-x="0"
   inkscape:window-y="0"
   inkscape:window-maximized="1"
   inkscape:current-layer="Calque_1" />
<style
   type="text/css"
   id="style2">
	.st0{fill:#00A651;}
	.st1{fill:none;stroke:#FFFFFF;stroke-width:1.5;stroke-linecap:round;stroke-linejoin:round;stroke-miterlimit:10;}
	.st2{fill:none;stroke:#FFFFFF;stroke-linecap:round;stroke-linejoin:round;}
	.st3{fill:#FFFFFF;}
	.st4{fill:none;stroke:#FFFFFF;stroke-width:0.5;stroke-linecap:round;stroke-miterlimit:10;}
</style>
<rect
   y="0"
   transform="matrix(-1.836970e-16 1 -1 -1.836970e-16 68.2083 9.166001e-13)"
   class="st0"
   width="68.208"
   height="68.208"
   id="rect4" />
<g
   id="Pasteursiation_21_">
	<g
   id="tank_41_">
		<path
   id="tank_42_"
   class="st1"
   d="M27.849,8.122c0,0,0.44,5.374-1.586,8.237s-1.542,6.959-1.542,8.193    c0,0.812-0.022,9.297-0.037,15.001c-0.008,2.855,2.305,5.172,5.16,5.172h4.2h4.2c2.855,0,5.167-2.317,5.16-5.172    c-0.015-5.704-0.037-14.189-0.037-15.001c0-1.233,0.485-5.33-1.542-8.193s-1.586-8.237-1.586-8.237" />
		<g
   id="process_59_">
			<g
   id="g15">
				<g
   id="g13">
					<path
   class="st2"
   d="M28.675,30.426c-0.123-0.459-0.188-0.941-0.188-1.439c0-1.012,0.271-1.962,0.744-2.779       c0.154-0.267,0.331-0.52,0.526-0.756"
   id="path7" />
					<g
   id="g11">
						<path
   class="st3"
   d="M32.604,23.617c-0.969,1.392-2.014,3.345-2.41,4.919l-0.729-2.737l-2.311-1.636        C28.767,24.34,30.962,24.041,32.604,23.617z"
   id="path9" />
					</g>
				</g>
			</g>
			<g
   id="g25">
				<g
   id="g23">
					<path
   class="st2"
   d="M37.98,32.912c-1.006,1.009-2.398,1.633-3.935,1.633c-0.311,0-0.617-0.026-0.914-0.075"
   id="path17" />
					<g
   id="g21">
						<path
   class="st3"
   d="M30.12,32.922c1.69,0.141,3.904,0.067,5.464-0.38l-2.003,2.002l-0.258,2.82        C32.669,35.88,31.31,34.131,30.12,32.922z"
   id="path19" />
					</g>
				</g>
			</g>
			<g
   id="g35">
				<g
   id="g33">
					<path
   class="st2"
   d="M35.485,23.617c1.437,0.384,2.645,1.331,3.373,2.589c0.155,0.267,0.288,0.548,0.397,0.841"
   id="path27" />
					<g
   id="g31">
						<path
   class="st3"
   d="M39.415,30.425c-0.711-1.54-1.867-3.429-3.025-4.566l2.73,0.755l2.58-1.166        C40.732,26.749,39.88,28.794,39.415,30.425z"
   id="path29" />
					</g>
				</g>
			</g>
		</g>
		<g
   id="heating_21_">
			<path
   class="st4"
   d="M32.271,27.388c0.254,0.468,0.589,0.915,0.027,1.902s-0.027,1.696-0.027,1.696"
   id="path38" />
			<path
   class="st4"
   d="M33.994,27.388c0.254,0.468,0.589,0.915,0.027,1.902s-0.027,1.696-0.027,1.696"
   id="path40" />
			<path
   class="st4"
   d="M35.715,27.388c0.254,0.468,0.589,0.915,0.027,1.902s-0.027,1.696-0.027,1.696"
   id="path42" />
		</g>
	</g>
	<g
   id="g76">
		<g
   id="g74">
			<path
   class="st3"
   d="M7.816,54.726c0,0.671-0.22,1.185-0.659,1.542s-1.065,0.536-1.876,0.536H4.612v2.404h-1.05v-6.425h1.85     c0.803,0,1.404,0.164,1.804,0.492C7.616,53.604,7.816,54.088,7.816,54.726z M4.612,55.922H5.17c0.539,0,0.935-0.094,1.187-0.281     s0.378-0.48,0.378-0.879c0-0.369-0.113-0.645-0.338-0.826s-0.577-0.272-1.055-0.272H4.612V55.922z"
   id="path46" />
			<path
   class="st3"
   d="M12.03,59.209l-0.207-0.677h-0.035c-0.234,0.296-0.47,0.497-0.708,0.604c-0.237,0.106-0.542,0.16-0.914,0.16     c-0.478,0-0.851-0.129-1.118-0.387c-0.269-0.258-0.402-0.623-0.402-1.095c0-0.501,0.186-0.879,0.558-1.134     s0.939-0.394,1.701-0.417l0.839-0.026v-0.26c0-0.311-0.073-0.542-0.217-0.696c-0.146-0.153-0.37-0.23-0.675-0.23     c-0.249,0-0.488,0.036-0.716,0.109s-0.448,0.16-0.659,0.26l-0.334-0.738c0.264-0.138,0.552-0.242,0.866-0.314     c0.313-0.071,0.609-0.107,0.888-0.107c0.618,0,1.084,0.135,1.399,0.404s0.473,0.692,0.473,1.27v3.274H12.03z M10.492,58.506     c0.375,0,0.676-0.104,0.903-0.314c0.227-0.209,0.34-0.503,0.34-0.881v-0.422l-0.624,0.026c-0.486,0.018-0.84,0.099-1.061,0.244     c-0.222,0.145-0.332,0.366-0.332,0.665c0,0.217,0.064,0.385,0.193,0.504C10.041,58.446,10.234,58.506,10.492,58.506z"
   id="path48" />
			<path
   class="st3"
   d="M17.475,57.824c0,0.475-0.173,0.839-0.519,1.093c-0.346,0.253-0.841,0.38-1.485,0.38     c-0.647,0-1.167-0.099-1.56-0.295V58.11c0.571,0.264,1.103,0.396,1.595,0.396c0.636,0,0.954-0.192,0.954-0.576     c0-0.123-0.035-0.226-0.105-0.308s-0.186-0.167-0.347-0.255c-0.161-0.088-0.385-0.188-0.672-0.299     c-0.56-0.217-0.938-0.434-1.136-0.65c-0.198-0.217-0.297-0.498-0.297-0.844c0-0.416,0.167-0.738,0.503-0.969     c0.335-0.229,0.792-0.345,1.369-0.345c0.571,0,1.112,0.115,1.622,0.347l-0.334,0.778c-0.524-0.217-0.965-0.325-1.323-0.325     c-0.545,0-0.817,0.155-0.817,0.466c0,0.152,0.071,0.281,0.213,0.387s0.452,0.25,0.93,0.435c0.401,0.155,0.693,0.298,0.875,0.427     s0.316,0.277,0.404,0.446C17.431,57.389,17.475,57.59,17.475,57.824z"
   id="path50" />
			<path
   class="st3"
   d="M20.402,58.462c0.252,0,0.504-0.04,0.756-0.119v0.778c-0.114,0.05-0.262,0.091-0.441,0.125     c-0.181,0.033-0.367,0.051-0.561,0.051c-0.979,0-1.468-0.516-1.468-1.547v-2.619h-0.664v-0.457l0.712-0.378l0.352-1.028h0.637     v1.081h1.384v0.782h-1.384v2.602c0,0.249,0.062,0.433,0.187,0.552C20.036,58.402,20.199,58.462,20.402,58.462z"
   id="path52" />
			<path
   class="st3"
   d="M24.251,59.297c-0.756,0-1.347-0.221-1.773-0.661c-0.427-0.441-0.64-1.049-0.64-1.822     c0-0.794,0.198-1.418,0.593-1.872s0.939-0.681,1.63-0.681c0.642,0,1.148,0.194,1.521,0.584s0.558,0.926,0.558,1.608v0.559h-3.239     c0.015,0.472,0.142,0.834,0.382,1.088c0.24,0.253,0.579,0.38,1.015,0.38c0.287,0,0.554-0.027,0.802-0.081     c0.248-0.055,0.514-0.145,0.798-0.271v0.839c-0.252,0.12-0.507,0.205-0.765,0.255S24.582,59.297,24.251,59.297z M24.062,55.043     c-0.328,0-0.591,0.104-0.789,0.312c-0.197,0.208-0.315,0.512-0.354,0.91h2.206c-0.006-0.401-0.103-0.705-0.29-0.912     C24.648,55.146,24.39,55.043,24.062,55.043z"
   id="path54" />
			<path
   class="st3"
   d="M30.742,59.209l-0.145-0.638h-0.053c-0.144,0.226-0.348,0.403-0.613,0.532     c-0.266,0.129-0.568,0.193-0.908,0.193c-0.589,0-1.028-0.146-1.318-0.439s-0.435-0.737-0.435-1.332v-3.177h1.042v2.997     c0,0.372,0.076,0.651,0.229,0.837c0.152,0.187,0.391,0.279,0.716,0.279c0.434,0,0.752-0.13,0.956-0.389     c0.203-0.26,0.305-0.694,0.305-1.304v-2.421h1.037v4.86H30.742z"
   id="path56" />
			<path
   class="st3"
   d="M35.492,54.261c0.208,0,0.379,0.015,0.514,0.044l-0.101,0.962c-0.146-0.035-0.299-0.053-0.457-0.053     c-0.413,0-0.748,0.135-1.004,0.404s-0.384,0.62-0.384,1.051v2.54h-1.033v-4.86h0.809l0.136,0.856h0.053     c0.161-0.29,0.372-0.52,0.63-0.689C34.915,54.346,35.194,54.261,35.492,54.261z"
   id="path58" />
			<path
   class="st3"
   d="M36.846,53.06c0-0.185,0.051-0.326,0.151-0.426c0.102-0.1,0.245-0.149,0.433-0.149     c0.182,0,0.323,0.05,0.425,0.149c0.101,0.1,0.151,0.241,0.151,0.426c0,0.176-0.051,0.314-0.151,0.416     c-0.102,0.101-0.243,0.151-0.425,0.151c-0.188,0-0.331-0.051-0.433-0.151C36.897,53.375,36.846,53.236,36.846,53.06z      M37.94,59.209h-1.032v-4.86h1.032V59.209z"
   id="path60" />
			<path
   class="st3"
   d="M42.682,57.824c0,0.475-0.173,0.839-0.519,1.093c-0.346,0.253-0.841,0.38-1.485,0.38     c-0.647,0-1.168-0.099-1.561-0.295V58.11c0.571,0.264,1.104,0.396,1.596,0.396c0.636,0,0.953-0.192,0.953-0.576     c0-0.123-0.035-0.226-0.105-0.308s-0.186-0.167-0.347-0.255s-0.386-0.188-0.673-0.299c-0.56-0.217-0.938-0.434-1.136-0.65     c-0.198-0.217-0.297-0.498-0.297-0.844c0-0.416,0.168-0.738,0.503-0.969c0.336-0.229,0.792-0.345,1.369-0.345     c0.571,0,1.112,0.115,1.622,0.347l-0.334,0.778c-0.524-0.217-0.966-0.325-1.323-0.325c-0.545,0-0.817,0.155-0.817,0.466     c0,0.152,0.071,0.281,0.213,0.387c0.143,0.105,0.452,0.25,0.93,0.435c0.401,0.155,0.693,0.298,0.875,0.427     s0.316,0.277,0.404,0.446C42.638,57.389,42.682,57.59,42.682,57.824z"
   id="path62" />
			<path
   class="st3"
   d="M46.839,59.209l-0.207-0.677h-0.035c-0.234,0.296-0.47,0.497-0.707,0.604     c-0.237,0.106-0.542,0.16-0.914,0.16c-0.478,0-0.851-0.129-1.118-0.387c-0.269-0.258-0.402-0.623-0.402-1.095     c0-0.501,0.186-0.879,0.558-1.134s0.939-0.394,1.701-0.417l0.839-0.026v-0.26c0-0.311-0.072-0.542-0.217-0.696     c-0.146-0.153-0.37-0.23-0.675-0.23c-0.249,0-0.488,0.036-0.717,0.109s-0.448,0.16-0.659,0.26l-0.334-0.738     c0.264-0.138,0.553-0.242,0.866-0.314c0.313-0.071,0.609-0.107,0.888-0.107c0.618,0,1.084,0.135,1.399,0.404     c0.314,0.27,0.473,0.692,0.473,1.27v3.274H46.839z M45.301,58.506c0.375,0,0.676-0.104,0.903-0.314     c0.227-0.209,0.34-0.503,0.34-0.881v-0.422l-0.624,0.026c-0.486,0.018-0.84,0.099-1.061,0.244     c-0.222,0.145-0.332,0.366-0.332,0.665c0,0.217,0.064,0.385,0.193,0.504C44.85,58.446,45.043,58.506,45.301,58.506z"
   id="path64" />
			<path
   class="st3"
   d="M50.829,58.462c0.252,0,0.504-0.04,0.756-0.119v0.778c-0.114,0.05-0.262,0.091-0.441,0.125     c-0.181,0.033-0.367,0.051-0.561,0.051c-0.979,0-1.468-0.516-1.468-1.547v-2.619h-0.664v-0.457l0.712-0.378l0.352-1.028h0.638     v1.081h1.384v0.782h-1.384v2.602c0,0.249,0.062,0.433,0.187,0.552C50.463,58.402,50.627,58.462,50.829,58.462z"
   id="path66" />
			<path
   class="st3"
   d="M52.494,53.06c0-0.185,0.051-0.326,0.151-0.426c0.102-0.1,0.246-0.149,0.434-0.149     c0.182,0,0.322,0.05,0.424,0.149c0.101,0.1,0.151,0.241,0.151,0.426c0,0.176-0.051,0.314-0.151,0.416     c-0.102,0.101-0.242,0.151-0.424,0.151c-0.188,0-0.332-0.051-0.434-0.151C52.545,53.375,52.494,53.236,52.494,53.06z      M53.589,59.209h-1.033v-4.86h1.033V59.209z"
   id="path68" />
			<path
   class="st3"
   d="M59.376,56.769c0,0.794-0.203,1.414-0.61,1.859s-0.975,0.668-1.701,0.668c-0.454,0-0.855-0.103-1.204-0.308     s-0.616-0.5-0.804-0.884s-0.281-0.829-0.281-1.336c0-0.788,0.202-1.403,0.606-1.846s0.974-0.663,1.709-0.663     c0.703,0,1.26,0.227,1.67,0.679C59.171,55.392,59.376,56.002,59.376,56.769z M55.839,56.769c0,1.122,0.414,1.684,1.243,1.684     c0.82,0,1.23-0.562,1.23-1.684c0-1.11-0.413-1.665-1.239-1.665c-0.434,0-0.748,0.144-0.942,0.431     C55.936,55.822,55.839,56.233,55.839,56.769z"
   id="path70" />
			<path
   class="st3"
   d="M64.839,59.209h-1.037v-2.988c0-0.375-0.076-0.655-0.227-0.84c-0.151-0.185-0.391-0.276-0.719-0.276     c-0.437,0-0.756,0.129-0.958,0.387s-0.303,0.689-0.303,1.296v2.422h-1.033v-4.86h0.809l0.146,0.637h0.053     c0.146-0.231,0.354-0.41,0.624-0.536s0.568-0.188,0.896-0.188c1.166,0,1.749,0.593,1.749,1.779V59.209z"
   id="path72" />
		</g>
	</g>
</g>
<text
   xml:space="preserve"
   style="font-style:normal;font-weight:normal;font-size:12.0455265px;line-height:125%;font-family:sans-serif;text-align:center;letter-spacing:0px;word-spacing:0px;text-anchor:middle;fill:#000000;fill-opacity:1;stroke:none;stroke-width:0.60227633px;stroke-linecap:butt;stroke-linejoin:miter;stroke-opacity:1"
   x="23.3232"
   y="12.667231"
   id="text897"
   transform="scale(1.0091178,0.99096456)"><tspan
     sodipodi:role="line"
     id="tspan895"
     x="23.3232"
     y="12.667231"
     style="stroke-width:0.60227633px">Reprise</tspan></text>
</svg>