<?xml version="1.0" encoding="utf-8"?>
<!-- Generator: Adobe Illustrator 21.0.0, SVG Export Plug-In . SVG Version: 6.00 Build 0)  #F7941D-->
<svg version="1.1" id="Calque_1" xmlns="http://www.w3.org/2000/svg" xmlns:xlink="http://www.w3.org/1999/xlink" x="0px" y="0px"
	 viewBox="0 0 68.208 50.208" style="fill-opacity:0;enable-background:new 0 0 68.208 50.208;" xml:space="preserve">
<style type="text/css">
	.st1{fill:none;fill-opacity:1;stroke:#FFFFFF;stroke-linecap:round;stroke-linejoin:round;stroke-miterlimit:10;}
	.st2{fill:#FFFFFF;fill-opacity:1;}
	.st3{fill:none;stroke:#FFFFFF;fill-opacity:1;stroke-width:0.75;stroke-linecap:round;stroke-linejoin:round;stroke-miterlimit:10;}
</style>
<rect id="bckF" x="0" y="0" width="68.208" height="68.208" fill-opacity="0.0"/>
<g id="Rincage_31_">
	<g id="gouttes_31_">
		<g id="goutte_93_">
			<path class="st1" d="M26.329,30.318l6.151-12.814l6.151,12.814c2.309,4.81-1.021,10.487-6.151,10.487h0
				C27.35,40.805,24.021,35.128,26.329,30.318z"/>
			<g>
				<path class="st2" d="M27.926,32.281c0.551,0.992,0.755,1.779,0.972,2.544c0.09,0.384,0.202,0.737,0.286,1.135l0.389,1.356
					l-0.058,0.082c-0.382-0.28-0.731-0.613-0.993-1.014c-0.258-0.401-0.453-0.84-0.588-1.298c-0.221-0.928-0.245-1.885-0.106-2.82
					L27.926,32.281z"/>
			</g>
		</g>
		<g id="goutte_92_">
			<path class="st3" d="M18.892,19.992l3.588-7.475l3.588,7.475c1.347,2.806-0.596,6.118-3.588,6.118h0
				C19.487,26.11,17.545,22.798,18.892,19.992z"/>
			<g>
				<path class="st2" d="M19.832,21.138c0.432,0.59,0.581,1.021,0.703,1.444c0.047,0.212,0.1,0.405,0.122,0.637
					c0.041,0.221,0.061,0.482,0.132,0.848l-0.043,0.061c-0.464-0.315-0.779-0.816-0.934-1.351c-0.127-0.545-0.138-1.104-0.054-1.651
					L19.832,21.138z"/>
			</g>
		</g>
		<g id="goutte_91_">
			<path class="st3" d="M39.67,14.521l2.81-5.855l2.81,5.855c1.055,2.198-0.466,4.792-2.81,4.792h0
				C40.136,19.313,38.615,16.719,39.67,14.521z"/>
			<g>
				<path class="st2" d="M40.414,15.42c0.448,0.472,0.591,0.783,0.684,1.091c0.031,0.155,0.06,0.293,0.052,0.475
					c0.01,0.171-0.013,0.39,0.01,0.72l-0.043,0.061c-0.367-0.245-0.618-0.639-0.743-1.061c-0.097-0.43-0.103-0.869-0.034-1.299
					L40.414,15.42z"/>
			</g>
		</g>
	</g>
	<!--g>
		<g>
			<path class="st2" d="M19.313,54.77v2.852h-1.167v-7.139h2.017c0.921,0,1.603,0.172,2.046,0.518
				c0.443,0.345,0.664,0.865,0.664,1.563c0,0.889-0.462,1.521-1.387,1.899l2.017,3.159h-1.328l-1.709-2.852H19.313z M19.313,53.804
				h0.811c0.543,0,0.938-0.102,1.182-0.303c0.244-0.202,0.366-0.502,0.366-0.898c0-0.404-0.132-0.693-0.396-0.869
				s-0.661-0.264-1.191-0.264h-0.771V53.804z"/>
			<path class="st2" d="M24.347,50.791c0-0.205,0.056-0.363,0.168-0.474c0.112-0.111,0.272-0.166,0.481-0.166
				c0.202,0,0.359,0.055,0.471,0.166c0.112,0.11,0.168,0.269,0.168,0.474c0,0.195-0.056,0.349-0.168,0.461s-0.27,0.169-0.471,0.169
				c-0.208,0-0.369-0.057-0.481-0.169S24.347,50.986,24.347,50.791z M25.563,57.622h-1.147v-5.4h1.147V57.622z"/>
			<path class="st2" d="M31.955,57.622h-1.152v-3.32c0-0.417-0.084-0.728-0.251-0.933s-0.434-0.308-0.798-0.308
				c-0.485,0-0.84,0.143-1.064,0.43c-0.225,0.286-0.337,0.767-0.337,1.44v2.69h-1.147v-5.4h0.898l0.161,0.708h0.059
				c0.163-0.258,0.394-0.456,0.693-0.596c0.299-0.141,0.631-0.21,0.996-0.21c1.295,0,1.943,0.659,1.943,1.978V57.622z"/>
			<path class="st2" d="M35.73,57.72c-0.817,0-1.438-0.238-1.863-0.716c-0.425-0.477-0.637-1.161-0.637-2.053
				c0-0.908,0.222-1.606,0.667-2.095s1.086-0.732,1.927-0.732c0.569,0,1.082,0.105,1.538,0.317l-0.347,0.923
				c-0.485-0.189-0.886-0.283-1.201-0.283c-0.935,0-1.402,0.62-1.402,1.86c0,0.605,0.116,1.061,0.349,1.364
				c0.233,0.305,0.574,0.457,1.023,0.457c0.511,0,0.994-0.127,1.45-0.381v1.001c-0.205,0.12-0.424,0.206-0.657,0.259
				C36.344,57.693,36.062,57.72,35.73,57.72z"/>
			<path class="st2" d="M40.862,57.72c-0.84,0-1.497-0.245-1.971-0.735c-0.474-0.489-0.71-1.164-0.71-2.023
				c0-0.883,0.22-1.576,0.659-2.08c0.439-0.505,1.043-0.757,1.812-0.757c0.713,0,1.275,0.216,1.689,0.649
				c0.413,0.433,0.62,1.028,0.62,1.787v0.62h-3.599c0.016,0.523,0.157,0.927,0.425,1.208c0.267,0.282,0.643,0.423,1.128,0.423
				c0.318,0,0.616-0.03,0.891-0.091c0.275-0.06,0.57-0.16,0.887-0.3v0.933c-0.28,0.133-0.563,0.228-0.85,0.283
				C41.556,57.691,41.229,57.72,40.862,57.72z M40.652,52.993c-0.365,0-0.657,0.115-0.877,0.347c-0.22,0.23-0.351,0.567-0.393,1.011
				h2.451c-0.007-0.446-0.114-0.784-0.322-1.014C41.302,53.107,41.016,52.993,40.652,52.993z"/>
			<path class="st2" d="M47.004,52.124c0.23,0,0.421,0.016,0.571,0.049l-0.112,1.069c-0.163-0.039-0.332-0.059-0.508-0.059
				c-0.459,0-0.831,0.149-1.116,0.449c-0.284,0.299-0.427,0.688-0.427,1.167v2.822h-1.147v-5.4h0.898l0.151,0.952h0.059
				c0.179-0.322,0.412-0.578,0.7-0.767C46.362,52.218,46.672,52.124,47.004,52.124z"/>
		</g>
	</g-->
</g>
</svg>
