<?xml version="1.0" encoding="UTF-8" standalone="no"?>
<!-- Generator: Adobe Illustrator 21.0.0, SVG Export Plug-In . SVG Version: 6.00 Build 0)  -->

<svg
   version="1.1"
   id="Calque_1"
   x="0px"
   y="0px"
   viewBox="0 0 68.208 50.208"
   style="fill-opacity:0;enable-background:new 0 0 68.208 50.208;"
   xml:space="preserve"
   sodipodi:docname="nextBtn.svg"
   inkscape:version="1.1.1 (c3084ef, 2021-09-22)"
   xmlns:inkscape="http://www.inkscape.org/namespaces/inkscape"
   xmlns:sodipodi="http://sodipodi.sourceforge.net/DTD/sodipodi-0.dtd"
   xmlns="http://www.w3.org/2000/svg"
   xmlns:svg="http://www.w3.org/2000/svg"><defs
   id="defs297" /><sodipodi:namedview
   id="namedview295"
   pagecolor="#505050"
   bordercolor="#eeeeee"
   borderopacity="1"
   inkscape:pageshadow="0"
   inkscape:pageopacity="0"
   inkscape:pagecheckerboard="0"
   showgrid="false"
   inkscape:zoom="6.7440769"
   inkscape:cx="34.029861"
   inkscape:cy="34.104"
   inkscape:window-width="1280"
   inkscape:window-height="686"
   inkscape:window-x="0"
   inkscape:window-y="23"
   inkscape:window-maximized="0"
   inkscape:current-layer="menu_parametres_texte_1_" />
<style
   type="text/css"
   id="style269">
	.st1{fill:#FFFFFF;fill-opacity:1;}
</style>
<rect id="bckN"
   y="0"
   class="st0"
   width="68.208"
   height="68.208"
   x="0" />

<g
   aria-label="Paramètres"
   id="menu_parametres_texte_1_"
   style="font-size:10px;font-family:OpenSans-Semibold;fill:#ffffff"
   class="st3 st4 st5"><path
     d="m 11.674826,50.997337 q 0,0.483399 -0.170899,0.898438 -0.166015,0.410156 -0.46875,0.71289 -0.375976,0.375977 -0.888672,0.566407 Q 9.63381,53.360619 8.85256,53.360619 H 7.8857632 V 56.07058 H 6.9189663 v -7.270508 h 1.9726562 q 0.6542969,0 1.1083985,0.112304 0.454102,0.107422 0.805664,0.341797 0.415039,0.278321 0.639648,0.69336 0.229493,0.415039 0.229493,1.049804 z m -1.00586,0.02441 q 0,-0.375976 -0.131836,-0.654296 Q 10.405294,50.089134 10.13674,49.913353 9.9023647,49.761986 9.5996304,49.698509 9.3017788,49.63015 8.8427944,49.63015 H 7.8857632 v 2.905273 h 0.8154297 q 0.5859375,0 0.9521484,-0.102539 0.3662107,-0.107422 0.5957027,-0.336914 0.229493,-0.234375 0.322266,-0.493164 0.09766,-0.258789 0.09766,-0.581055 z"
     style="font-size:10px;font-family:OpenSans-Semibold;fill:#ffffff"
     id="path1248" /><path
     d="m 17.119162,56.07058 h -0.913086 v -0.581055 q -0.122071,0.08301 -0.332032,0.234375 -0.205078,0.146484 -0.40039,0.234375 -0.229492,0.112305 -0.527344,0.185547 -0.297852,0.07813 -0.698242,0.07813 -0.737305,0 -1.25,-0.488282 -0.512695,-0.488281 -0.512695,-1.245117 0,-0.620117 0.263671,-1.000976 0.268555,-0.385742 0.761719,-0.605469 0.498047,-0.219727 1.196289,-0.297852 0.698242,-0.07813 1.499024,-0.117187 v -0.141602 q 0,-0.3125 -0.112305,-0.517578 -0.107422,-0.205078 -0.3125,-0.322265 -0.195313,-0.112305 -0.46875,-0.151368 -0.273438,-0.03906 -0.571289,-0.03906 -0.361328,0 -0.805664,0.09766 -0.444336,0.09277 -0.917969,0.273438 h -0.04883 v -0.932618 q 0.268555,-0.07324 0.776367,-0.161132 0.507813,-0.08789 1.000977,-0.08789 0.576172,0 1.000976,0.09766 0.429688,0.09277 0.742188,0.322266 0.307617,0.224609 0.46875,0.581055 0.161133,0.356445 0.161133,0.883789 z m -0.913086,-1.342774 v -1.518555 q -0.419922,0.02441 -0.991211,0.07324 -0.566407,0.04883 -0.898438,0.141601 -0.395508,0.112305 -0.639648,0.351563 -0.244141,0.234375 -0.244141,0.649414 0,0.46875 0.283203,0.708008 0.283203,0.234375 0.864258,0.234375 0.483399,0 0.883789,-0.185547 0.400391,-0.19043 0.742188,-0.454102 z"
     style="font-size:10px;font-family:OpenSans-Semibold;fill:#ffffff"
     id="path1250" /><path
     d="m 22.299826,51.617455 h -0.04883 q -0.205079,-0.04883 -0.400391,-0.06836 -0.19043,-0.02441 -0.454102,-0.02441 -0.424804,0 -0.820312,0.19043 -0.395508,0.185547 -0.761719,0.483398 v 3.872071 h -0.917969 v -5.454102 h 0.917969 v 0.805664 q 0.546875,-0.439453 0.961914,-0.620117 0.419922,-0.185547 0.854492,-0.185547 0.239258,0 0.34668,0.01465 0.107422,0.0098 0.322266,0.04395 z"
     style="font-size:10px;font-family:OpenSans-Semibold;fill:#ffffff"
     id="path1252" /><path
     d="m 27.41213,56.07058 h -0.913086 v -0.581055 q -0.12207,0.08301 -0.332031,0.234375 -0.205078,0.146484 -0.40039,0.234375 -0.229493,0.112305 -0.527344,0.185547 -0.297852,0.07813 -0.698242,0.07813 -0.737305,0 -1.25,-0.488282 -0.512696,-0.488281 -0.512696,-1.245117 0,-0.620117 0.263672,-1.000976 0.268555,-0.385742 0.761719,-0.605469 0.498047,-0.219727 1.196289,-0.297852 0.698242,-0.07813 1.499023,-0.117187 v -0.141602 q 0,-0.3125 -0.112304,-0.517578 -0.107422,-0.205078 -0.3125,-0.322265 -0.195313,-0.112305 -0.46875,-0.151368 -0.273438,-0.03906 -0.571289,-0.03906 -0.361328,0 -0.805664,0.09766 -0.444336,0.09277 -0.917969,0.273438 h -0.04883 v -0.932618 q 0.268554,-0.07324 0.776367,-0.161132 0.507812,-0.08789 1.000976,-0.08789 0.576172,0 1.000977,0.09766 0.429688,0.09277 0.742188,0.322266 0.307617,0.224609 0.46875,0.581055 0.161132,0.356445 0.161132,0.883789 z m -0.913086,-1.342774 v -1.518555 q -0.419921,0.02441 -0.991211,0.07324 -0.566406,0.04883 -0.898437,0.141601 -0.395508,0.112305 -0.639648,0.351563 -0.244141,0.234375 -0.244141,0.649414 0,0.46875 0.283203,0.708008 0.283203,0.234375 0.864258,0.234375 0.483398,0 0.883789,-0.185547 0.400391,-0.19043 0.742187,-0.454102 z"
     style="font-size:10px;font-family:OpenSans-Semibold;fill:#ffffff"
     id="path1254" /><path
     d="M 37.148458,56.07058 H 36.23049 v -3.105469 q 0,-0.351563 -0.03418,-0.678711 -0.0293,-0.327149 -0.131836,-0.522461 -0.112305,-0.209961 -0.322266,-0.317383 -0.20996,-0.107422 -0.605468,-0.107422 -0.385742,0 -0.771485,0.195313 -0.385742,0.190429 -0.771484,0.488281 0.01465,0.112305 0.02441,0.263672 0.0098,0.146484 0.0098,0.292969 v 3.491211 h -0.917969 v -3.105469 q 0,-0.361328 -0.03418,-0.683594 -0.0293,-0.327148 -0.131836,-0.522461 -0.112304,-0.209961 -0.322265,-0.3125 -0.209961,-0.107422 -0.605469,-0.107422 -0.375977,0 -0.756836,0.185547 -0.375977,0.185547 -0.751953,0.473633 v 4.072266 h -0.917969 v -5.454102 h 0.917969 v 0.605469 q 0.429687,-0.356446 0.854492,-0.556641 0.429688,-0.200195 0.913086,-0.200195 0.556641,0 0.942383,0.234375 0.390625,0.234375 0.581054,0.649414 0.556641,-0.46875 1.015625,-0.673828 0.458985,-0.209961 0.981446,-0.209961 0.898437,0 1.323242,0.546875 0.429687,0.541992 0.429687,1.518554 z"
     style="font-size:10px;font-family:OpenSans-Semibold;fill:#ffffff"
     id="path1256" /><path
     d="m 43.481466,53.438744 h -4.018554 q 0,0.502929 0.151367,0.878906 0.151367,0.371094 0.415039,0.610351 0.253906,0.234375 0.600586,0.351563 0.351562,0.117187 0.771484,0.117187 0.556641,0 1.118164,-0.219726 0.566406,-0.22461 0.805664,-0.439453 h 0.04883 v 1.000976 q -0.463867,0.195313 -0.947265,0.327149 -0.483399,0.131836 -1.015625,0.131836 -1.357422,0 -2.119141,-0.732422 -0.761719,-0.737305 -0.761719,-2.089844 0,-1.337891 0.727539,-2.124023 0.732422,-0.786133 1.923829,-0.786133 1.103515,0 1.699218,0.644531 0.600586,0.644531 0.600586,1.831055 z m -0.893554,-0.703125 q -0.0049,-0.722657 -0.366211,-1.118164 -0.356446,-0.395508 -1.088868,-0.395508 -0.737304,0 -1.176757,0.43457 -0.434571,0.43457 -0.493164,1.079102 z m -0.869141,-3.022461 h -0.727539 l -1.333008,-1.826172 h 1.186524 z"
     style="font-size:10px;font-family:OpenSans-Semibold;fill:#ffffff"
     id="path1258" /><path
     d="m 47.705099,56.021751 q -0.258789,0.06836 -0.566406,0.112305 -0.302735,0.04395 -0.541992,0.04395 -0.834961,0 -1.269532,-0.449218 -0.43457,-0.449219 -0.43457,-1.44043 v -2.900391 h -0.620117 v -0.771484 h 0.620117 v -1.567383 h 0.917969 v 1.567383 h 1.894531 v 0.771484 h -1.894531 v 2.485352 q 0,0.429687 0.01953,0.673828 0.01953,0.239258 0.136719,0.449219 0.107422,0.195312 0.292969,0.288086 0.190429,0.08789 0.576171,0.08789 0.22461,0 0.46875,-0.06348 0.244141,-0.06836 0.351563,-0.112305 h 0.04883 z"
     style="font-size:10px;font-family:OpenSans-Semibold;fill:#ffffff"
     id="path1260" /><path
     d="m 52.221701,51.617455 h -0.04883 q -0.205079,-0.04883 -0.400391,-0.06836 -0.19043,-0.02441 -0.454102,-0.02441 -0.424804,0 -0.820312,0.19043 -0.395508,0.185547 -0.761719,0.483398 V 56.07058 H 48.81838 v -5.454102 h 0.917969 v 0.805664 q 0.546875,-0.439453 0.961914,-0.620117 0.419922,-0.185547 0.854492,-0.185547 0.239258,0 0.34668,0.01465 0.107422,0.0098 0.322266,0.04395 z"
     style="font-size:10px;font-family:OpenSans-Semibold;fill:#ffffff"
     id="path1262" /><path
     d="m 57.661154,53.438744 h -4.018555 q 0,0.502929 0.151367,0.878906 0.151367,0.371094 0.415039,0.610351 0.253907,0.234375 0.600586,0.351563 0.351563,0.117187 0.771485,0.117187 0.55664,0 1.118164,-0.219726 0.566406,-0.22461 0.805664,-0.439453 h 0.04883 v 1.000976 q -0.463867,0.195313 -0.947266,0.327149 -0.483398,0.131836 -1.015625,0.131836 -1.357422,0 -2.11914,-0.732422 -0.761719,-0.737305 -0.761719,-2.089844 0,-1.337891 0.727539,-2.124023 0.732422,-0.786133 1.923828,-0.786133 1.103516,0 1.699219,0.644531 0.600586,0.644531 0.600586,1.831055 z m -0.893555,-0.703125 q -0.0049,-0.722657 -0.366211,-1.118164 -0.356445,-0.395508 -1.088867,-0.395508 -0.737305,0 -1.176758,0.43457 -0.43457,0.43457 -0.493164,1.079102 z"
     style="font-size:10px;font-family:OpenSans-Semibold;fill:#ffffff"
     id="path1264" /><path
     d="m 62.94924,54.498314 q 0,0.74707 -0.620117,1.225586 -0.615235,0.478515 -1.684571,0.478515 -0.605469,0 -1.113281,-0.141601 -0.50293,-0.146484 -0.844727,-0.317383 v -1.030273 h 0.04883 q 0.43457,0.327148 0.966796,0.522461 0.532227,0.190429 1.020508,0.190429 0.605469,0 0.947266,-0.195312 0.341797,-0.195313 0.341797,-0.615235 0,-0.322265 -0.185547,-0.488281 -0.185547,-0.166015 -0.712891,-0.283203 -0.195312,-0.04395 -0.512695,-0.102539 -0.3125,-0.05859 -0.571289,-0.126953 -0.717774,-0.19043 -1.020508,-0.556641 -0.297852,-0.371094 -0.297852,-0.908203 0,-0.336914 0.136719,-0.634766 0.141602,-0.297851 0.424805,-0.532226 0.273437,-0.229492 0.693359,-0.361328 0.424805,-0.136719 0.947266,-0.136719 0.488281,0 0.986328,0.12207 0.50293,0.117188 0.834961,0.288086 v 0.981446 h -0.04883 q -0.351563,-0.258789 -0.854492,-0.434571 -0.50293,-0.180664 -0.986328,-0.180664 -0.50293,0 -0.84961,0.195313 -0.34668,0.190429 -0.34668,0.571289 0,0.336914 0.209961,0.507812 0.205079,0.170899 0.664063,0.278321 0.253906,0.05859 0.566406,0.117187 0.317383,0.05859 0.527344,0.107422 0.639648,0.146484 0.986328,0.50293 0.34668,0.361328 0.34668,0.957031 z"
     style="font-size:10px;font-family:OpenSans-Semibold;fill:#ffffff"
     id="path1266" /></g><circle
   id="menu_parametres_logovect2"
   class="st1"
   cx="34.104008"
   cy="23.652279"
   r="7"
   style="fill:none;stroke:#ffffff;stroke-width:3;stroke-linecap:round;stroke-linejoin:round;stroke-miterlimit:10" /><path
   id="menu_parametres_logovect1"
   class="st2"
   d="m 50.004004,23.852278 v -0.4 c 0,-1.4 -1.2,-2.6 -2.6,-2.6 v 0 c -1,0 -2,-0.6 -2.4,-1.6 0,-0.1 -0.1,-0.2 -0.1,-0.2 -0.4,-1 -0.2,-2.1 0.6,-2.8 v 0 c 1,-1 1,-2.7 0,-3.7 l -0.3,-0.3 c -1,-1 -2.7,-1 -3.7,0 v 0 c -0.7,0.7 -1.9,1 -2.8,0.6 -0.1,0 -0.2,-0.1 -0.2,-0.1 -1,-0.4 -1.6,-1.3 -1.6,-2.4 v 0 c 0,-1.3999998 -1.2,-2.5999998 -2.6,-2.5999998 h -0.4 c -1.4,0 -2.6,1.2 -2.6,2.5999998 v 0 c 0,1 -0.6,2 -1.6,2.4 -0.1,0 -0.2,0.1 -0.2,0.1 -1,0.4 -2.1,0.2 -2.8,-0.6 v 0 c -1,-1 -2.7,-1 -3.7,0 l -0.3,0.3 c -1,1 -1,2.7 0,3.7 v 0 c 0.7,0.7 1,1.9 0.6,2.8 0,0.1 -0.1,0.2 -0.1,0.2 -0.4,1 -1.3,1.6 -2.4,1.6 v 0 c -1.4,0 -2.6,1.2 -2.6,2.6 v 0.4 c 0,1.4 1.2,2.6 2.6,2.6 v 0 c 1,0 2,0.6 2.4,1.6 0,0.1 0.1,0.2 0.1,0.2 0.4,1 0.2,2.1 -0.6,2.8 v 0 c -1,1 -1,2.7 0,3.7 l 0.3,0.3 c 1,1 2.7,1 3.7,0 v 0 c 0.7,-0.7 1.9,-1 2.8,-0.6 0.1,0 0.2,0.1 0.2,0.1 1,0.4 1.6,1.3 1.6,2.4 v 0 c 0,1.4 1.2,2.6 2.6,2.6 h 0.4 c 1.4,0 2.6,-1.2 2.6,-2.6 v 0 c 0,-1 0.6,-2 1.6,-2.4 0.1,0 0.2,-0.1 0.2,-0.1 1,-0.4 2.1,-0.2 2.8,0.6 v 0 c 1,1 2.7,1 3.7,0 l 0.3,-0.3 c 1,-1 1,-2.7 0,-3.7 v 0 c -0.7,-0.7 -1,-1.9 -0.6,-2.8 0,-0.1 0.1,-0.2 0.1,-0.2 0.4,-1 1.3,-1.6 2.4,-1.6 v 0 c 1.4,0 2.6,-1.2 2.6,-2.6 z"
   style="fill:none;stroke:#ffffff;stroke-linecap:round;stroke-linejoin:round;stroke-miterlimit:10" /></svg>
