<?xml version="1.0" encoding="utf-8"?>
<!-- Generator: Adobe Illustrator 21.0.0, SVG Export Plug-In . SVG Version: 6.00 Build 0)  -->
<svg version="1.1" id="Calque_1" xmlns="http://www.w3.org/2000/svg" xmlns:xlink="http://www.w3.org/1999/xlink" x="0px" y="0px"
	 viewBox="0 0 68.208 50.208" style="enable-background:new 0 0 68.208 50.208;fill-opacity:0;" xml:space="preserve">
<style type="text/css">
	.st1{fill:#FFFFFF;fill-opacity:1;}
</style>
<rect id="bck_" class="st0" width="68.208" height="50.208"/>
<g id="Avancer_48_">
	<g>
		<g>
			<path class="st1" d="M25.31,51.805c0,0.745-0.244,1.316-0.732,1.714s-1.184,0.596-2.085,0.596H21.75v2.671h-1.167v-7.139h2.056
				c0.892,0,1.561,0.183,2.004,0.547C25.088,50.558,25.31,51.095,25.31,51.805z M21.75,53.133h0.62c0.599,0,1.038-0.104,1.318-0.313
				s0.42-0.534,0.42-0.977c0-0.41-0.125-0.716-0.376-0.918s-0.642-0.303-1.172-0.303H21.75V53.133z"/>
			<path class="st1" d="M29.993,56.785l-0.229-0.752h-0.039c-0.261,0.329-0.522,0.553-0.786,0.672
				c-0.264,0.118-0.603,0.178-1.016,0.178c-0.53,0-0.945-0.144-1.242-0.43c-0.299-0.286-0.447-0.691-0.447-1.216
				c0-0.557,0.207-0.977,0.62-1.26s1.043-0.438,1.89-0.464l0.933-0.029v-0.288c0-0.345-0.081-0.603-0.241-0.774
				c-0.162-0.17-0.411-0.256-0.75-0.256c-0.276,0-0.542,0.041-0.796,0.122s-0.498,0.178-0.732,0.288l-0.371-0.82
				c0.293-0.153,0.613-0.27,0.962-0.35c0.349-0.079,0.677-0.119,0.986-0.119c0.687,0,1.205,0.149,1.555,0.449
				c0.351,0.3,0.525,0.77,0.525,1.411v3.638H29.993z M28.284,56.004c0.417,0,0.751-0.116,1.004-0.35
				c0.252-0.232,0.378-0.559,0.378-0.979v-0.469l-0.693,0.029c-0.54,0.02-0.934,0.109-1.179,0.271
				c-0.246,0.16-0.369,0.407-0.369,0.739c0,0.241,0.071,0.427,0.215,0.56C27.783,55.938,27.997,56.004,28.284,56.004z"/>
			<path class="st1" d="M36.223,56.785l-0.161-0.708h-0.059c-0.159,0.251-0.387,0.447-0.68,0.591
				c-0.295,0.144-0.631,0.215-1.009,0.215c-0.654,0-1.143-0.163-1.465-0.488s-0.483-0.818-0.483-1.479v-3.53h1.157v3.33
				c0,0.413,0.085,0.724,0.254,0.93c0.169,0.207,0.435,0.311,0.796,0.311c0.481,0,0.835-0.145,1.062-0.432
				c0.226-0.289,0.339-0.771,0.339-1.448v-2.69h1.152v5.4H36.223z"/>
			<path class="st1" d="M42.39,55.247c0,0.527-0.192,0.932-0.576,1.214c-0.384,0.281-0.935,0.422-1.65,0.422
				c-0.72,0-1.297-0.109-1.733-0.327v-0.991c0.635,0.293,1.226,0.439,1.772,0.439c0.706,0,1.06-0.213,1.06-0.64
				c0-0.137-0.039-0.251-0.117-0.342s-0.207-0.186-0.386-0.283s-0.428-0.208-0.747-0.332c-0.622-0.241-1.043-0.481-1.262-0.723
				c-0.221-0.241-0.33-0.554-0.33-0.938c0-0.462,0.187-0.821,0.559-1.077c0.373-0.255,0.88-0.383,1.521-0.383
				c0.635,0,1.235,0.129,1.802,0.386l-0.371,0.864c-0.583-0.241-1.072-0.361-1.47-0.361c-0.605,0-0.908,0.173-0.908,0.518
				c0,0.169,0.079,0.313,0.236,0.43c0.158,0.117,0.503,0.278,1.033,0.483c0.446,0.173,0.77,0.33,0.972,0.474
				s0.352,0.309,0.449,0.496C42.341,54.763,42.39,54.986,42.39,55.247z"/>
			<path class="st1" d="M45.988,56.883c-0.84,0-1.497-0.245-1.97-0.734c-0.475-0.49-0.711-1.165-0.711-2.024
				c0-0.882,0.22-1.575,0.659-2.08s1.043-0.757,1.812-0.757c0.713,0,1.276,0.217,1.689,0.649s0.62,1.028,0.62,1.787v0.62h-3.599
				c0.017,0.524,0.158,0.927,0.425,1.209c0.267,0.281,0.643,0.422,1.128,0.422c0.319,0,0.616-0.03,0.891-0.09
				c0.275-0.061,0.571-0.161,0.887-0.301v0.933c-0.28,0.134-0.563,0.228-0.85,0.283S46.356,56.883,45.988,56.883z M45.778,52.156
				c-0.364,0-0.656,0.115-0.877,0.347c-0.219,0.231-0.351,0.568-0.393,1.011h2.451c-0.007-0.446-0.114-0.783-0.322-1.014
				C46.43,52.272,46.142,52.156,45.778,52.156z"/>
		</g>
	</g>
	<path class="st1" d="M34.107,8.424c-8.793,0-15.922,7.128-15.922,15.922c0,8.793,7.128,15.922,15.922,15.922
		c8.793,0,15.922-7.128,15.922-15.922C50.028,15.552,42.9,8.424,34.107,8.424z M32.169,30.752c0,0.34-0.276,0.616-0.616,0.616
		h-2.978c-0.34,0-0.616-0.276-0.616-0.616V17.939c0-0.34,0.276-0.616,0.616-0.616h2.978c0.34,0,0.616,0.276,0.616,0.616V30.752z
		 M40.232,30.752c0,0.34-0.276,0.616-0.616,0.616h-3.103c-0.34,0-0.616-0.276-0.616-0.616V17.939c0-0.34,0.276-0.616,0.616-0.616
		h3.103c0.34,0,0.616,0.276,0.616,0.616V30.752z"/>
</g>
</svg>
