<?xml version="1.0" encoding="utf-8"?>
<!-- Generator: Adobe Illustrator 21.0.0, SVG Export Plug-In . SVG Version: 6.00 Build 0)  -->
<svg version="1.1" id="Calque_1" xmlns="http://www.w3.org/2000/svg" xmlns:xlink="http://www.w3.org/1999/xlink" x="0px" y="0px"
	 viewBox="0 0 68.208 68.208" style="enable-background:new 0 0 68.208 68.208;" xml:space="preserve">
<style type="text/css">
	.st0{fill:#F7941D;}
	.st1{fill:none;stroke:#FFFFFF;stroke-width:0.75;stroke-linecap:round;stroke-linejoin:round;stroke-miterlimit:10;}
	.st2{fill:none;stroke:#FFFFFF;stroke-width:1.5;stroke-linecap:round;stroke-linejoin:round;stroke-miterlimit:10;}
	.st3{fill:#FFFFFF;}
</style>
<rect x="0" y="0" class="st0" width="68.208" height="68.208"/>
<g id="Purge_31_">
	<g id="bac_vidange_31_">
		<path class="st1" d="M11.742,16.082c0.982-0.66,3.683-0.751,4.941-0.587c1.73,0.226,5.539,1.084,7.409,1.1
			c3.394,0.03,5.766-1.123,7.466-1.228c2.998-0.184,5.203,1.112,7.636,1.243c2.432,0.131,6.165-1.034,8.936-1.258
			c2.771-0.224,7.199,1.367,8.407,1.268"/>
		<path class="st2" d="M36.347,31.169V29.14h14.609c3.083,0,5.581-3.241,5.581-7.239V8.666"/>
		<path class="st2" d="M11.742,8.666v13.235c0,3.998,2.499,7.239,5.581,7.239h14.609v2.029"/>
		<g>
			<path class="st3" d="M29.817,36.735c1.65-1.357,2.993-3.294,3.186-5.566c0.152,2.28-0.924,4.559-2.494,6.288
				c-0.185,0.206-0.502,0.224-0.708,0.04c-0.206-0.185-0.224-0.502-0.04-0.708C29.777,36.771,29.799,36.75,29.817,36.735z"/>
		</g>
		<g>
			<path class="st3" d="M37.735,37.457c-1.57-1.729-2.646-4.008-2.494-6.288c0.193,2.272,1.537,4.209,3.186,5.566
				c0.214,0.176,0.245,0.492,0.069,0.706c-0.176,0.214-0.492,0.245-0.706,0.069C37.772,37.495,37.751,37.474,37.735,37.457z"/>
		</g>
		<g>
			<path class="st3" d="M35.922,39.778c-0.455-0.588-0.714-1.225-0.932-1.858c-0.216-0.635-0.362-1.277-0.476-1.921
				c-0.232-1.286-0.342-2.58-0.371-3.87c0.195,1.274,0.471,2.535,0.857,3.75c0.191,0.606,0.412,1.202,0.686,1.759
				c0.271,0.553,0.589,1.088,0.984,1.475c0.198,0.194,0.201,0.511,0.007,0.709s-0.511,0.201-0.709,0.007
				C35.952,39.814,35.935,39.795,35.922,39.778z"/>
		</g>
		<g>
			<path class="st3" d="M31.516,40.242c0.229-0.285,0.424-0.664,0.6-1.043c0.176-0.383,0.332-0.785,0.474-1.193
				c0.286-0.816,0.528-1.656,0.736-2.506c-0.043,0.874-0.121,1.749-0.25,2.625c-0.064,0.438-0.143,0.877-0.25,1.317
				c-0.111,0.441-0.231,0.882-0.465,1.337l-0.005,0.009c-0.127,0.247-0.431,0.344-0.678,0.216c-0.247-0.127-0.344-0.431-0.216-0.678
				C31.477,40.297,31.496,40.267,31.516,40.242z"/>
		</g>
		<g>
			<path class="st3" d="M15.358,22.642c0.428-0.275,0.772-0.555,1.247-0.787c0.243-0.122,0.524-0.171,0.781-0.202
				c0.223-0.036,0.618-0.004,0.873,0.126c0.531,0.267,0.85,0.648,1.169,0.985c0.325,0.331,0.599,0.67,1.078,0.833
				c-0.5,0.147-1.063-0.106-1.455-0.385c-0.414-0.272-0.767-0.602-1.105-0.751c-0.262-0.149-0.759-0.111-1.154-0.052
				C16.372,22.513,15.852,22.652,15.358,22.642z"/>
		</g>
		<g>
			<path class="st3" d="M37.831,26.418c0.259-0.462,0.713-0.798,1.216-1c0.259-0.094,0.52-0.2,0.924-0.109
				c0.325,0.101,0.542,0.266,0.756,0.406c0.191,0.147,0.416,0.311,0.508,0.344c0.011,0.007,0.001,0.002,0.004,0.01l0.078,0.003
				c0.053,0.003,0.105,0.004,0.155-0.001c0.103-0.004,0.203-0.02,0.306-0.04c0.202-0.044,0.406-0.139,0.632-0.256
				c0.225-0.098,0.512-0.254,0.776-0.165c-0.25,0.091-0.389,0.26-0.554,0.459c-0.171,0.184-0.378,0.386-0.648,0.51
				c-0.131,0.065-0.274,0.119-0.419,0.142c-0.072,0.017-0.145,0.027-0.217,0.033l-0.109,0.011c-0.058-0.002-0.133-0.006-0.181-0.019
				c-0.388-0.118-0.551-0.289-0.769-0.423c-0.192-0.147-0.385-0.278-0.535-0.341c-0.08-0.06-0.333-0.033-0.549-0.005
				C38.759,26.065,38.283,26.175,37.831,26.418z"/>
		</g>
		<g>
			<path class="st3" d="M32.354,19.918c-0.513,0.134-1.064-0.01-1.53-0.161c-0.24-0.069-0.466-0.164-0.681-0.217
				c-0.226-0.071-0.334-0.066-0.59-0.045c-0.447,0.026-0.877,0.133-1.344,0.27c-0.452,0.137-1.015,0.303-1.525,0.153
				c0.495-0.15,0.845-0.454,1.299-0.693c0.44-0.257,0.973-0.434,1.516-0.478c0.237-0.02,0.633,0.003,0.872,0.122
				c0.254,0.11,0.478,0.223,0.69,0.354C31.495,19.464,31.867,19.757,32.354,19.918z"/>
		</g>
		<g>
			<path class="st3" d="M47.093,21.437c0.424-0.116,0.859,0.177,1.146,0.39c0.322,0.231,0.546,0.396,0.761,0.357
				c0.333,0.004,0.606-0.072,0.983-0.186c0.373-0.131,0.847-0.155,1.221,0c-0.391,0.146-0.668,0.33-0.979,0.533
				c-0.305,0.218-0.77,0.401-1.204,0.402c-0.24,0.014-0.564-0.088-0.741-0.231c-0.189-0.148-0.33-0.298-0.445-0.457
				C47.582,21.949,47.456,21.625,47.093,21.437z"/>
		</g>
	</g>
	<g>
		<g>
			<path class="st3" d="M23.585,52.641c0,0.745-0.244,1.316-0.732,1.714c-0.488,0.396-1.184,0.596-2.085,0.596h-0.742v2.671h-1.167
				v-7.139h2.056c0.892,0,1.561,0.182,2.004,0.547C23.363,51.394,23.585,51.931,23.585,52.641z M20.025,53.97h0.62
				c0.599,0,1.038-0.104,1.318-0.313c0.28-0.209,0.42-0.534,0.42-0.977c0-0.41-0.125-0.717-0.376-0.918
				c-0.251-0.202-0.642-0.303-1.172-0.303h-0.811V53.97z"/>
			<path class="st3" d="M28.697,57.622l-0.161-0.708h-0.059c-0.159,0.25-0.387,0.447-0.681,0.591
				c-0.295,0.143-0.631,0.215-1.009,0.215c-0.654,0-1.143-0.163-1.465-0.488c-0.322-0.326-0.483-0.819-0.483-1.479v-3.53h1.157v3.33
				c0,0.413,0.085,0.724,0.254,0.93c0.169,0.207,0.435,0.311,0.796,0.311c0.481,0,0.836-0.145,1.063-0.433
				c0.226-0.288,0.339-0.771,0.339-1.447v-2.69H29.6v5.4H28.697z"/>
			<path class="st3" d="M33.975,52.124c0.231,0,0.422,0.016,0.571,0.049l-0.112,1.069c-0.163-0.039-0.332-0.059-0.508-0.059
				c-0.459,0-0.831,0.149-1.116,0.449c-0.284,0.299-0.427,0.688-0.427,1.167v2.822h-1.147v-5.4h0.898l0.151,0.952h0.059
				c0.179-0.322,0.413-0.578,0.7-0.767C33.334,52.218,33.643,52.124,33.975,52.124z"/>
			<path class="st3" d="M40.108,52.222v0.63l-0.923,0.171c0.085,0.113,0.154,0.254,0.21,0.42s0.083,0.342,0.083,0.527
				c0,0.557-0.192,0.994-0.576,1.313c-0.384,0.318-0.913,0.479-1.587,0.479c-0.173,0-0.329-0.014-0.469-0.039
				c-0.247,0.152-0.371,0.332-0.371,0.537c0,0.123,0.058,0.216,0.174,0.278c0.115,0.062,0.327,0.093,0.637,0.093h0.942
				c0.596,0,1.048,0.127,1.357,0.381s0.464,0.62,0.464,1.099c0,0.611-0.252,1.084-0.757,1.416s-1.233,0.498-2.188,0.498
				c-0.735,0-1.297-0.131-1.684-0.391c-0.388-0.261-0.581-0.632-0.581-1.113c0-0.332,0.104-0.611,0.315-0.838
				c0.209-0.226,0.502-0.383,0.88-0.471c-0.153-0.065-0.279-0.17-0.379-0.315c-0.099-0.145-0.148-0.297-0.148-0.456
				c0-0.202,0.056-0.373,0.17-0.513c0.114-0.141,0.283-0.278,0.508-0.415c-0.28-0.121-0.507-0.316-0.68-0.589
				c-0.175-0.271-0.262-0.59-0.262-0.954c0-0.586,0.185-1.04,0.554-1.362c0.369-0.322,0.896-0.483,1.579-0.483
				c0.153,0,0.313,0.011,0.481,0.031c0.167,0.021,0.293,0.043,0.378,0.066H40.108z M35.864,58.462c0,0.247,0.111,0.438,0.335,0.571
				c0.223,0.133,0.536,0.2,0.939,0.2c0.625,0,1.091-0.09,1.396-0.269c0.306-0.18,0.459-0.417,0.459-0.713
				c0-0.234-0.084-0.401-0.252-0.501c-0.167-0.099-0.479-0.148-0.935-0.148h-0.869c-0.329,0-0.59,0.077-0.784,0.231
				C35.961,57.989,35.864,58.198,35.864,58.462z M36.358,53.97c0,0.338,0.087,0.599,0.262,0.781
				c0.174,0.182,0.424,0.273,0.749,0.273c0.664,0,0.996-0.355,0.996-1.064c0-0.352-0.082-0.623-0.247-0.813
				c-0.164-0.19-0.414-0.285-0.749-0.285c-0.332,0-0.583,0.094-0.755,0.283C36.444,53.333,36.358,53.608,36.358,53.97z"/>
			<path class="st3" d="M43.467,57.72c-0.84,0-1.497-0.245-1.97-0.735c-0.475-0.489-0.711-1.164-0.711-2.023
				c0-0.883,0.22-1.576,0.659-2.08c0.439-0.505,1.043-0.757,1.812-0.757c0.713,0,1.276,0.216,1.689,0.649
				c0.413,0.433,0.62,1.028,0.62,1.787v0.62h-3.599c0.017,0.523,0.158,0.927,0.425,1.208c0.267,0.282,0.643,0.423,1.128,0.423
				c0.319,0,0.616-0.03,0.891-0.091c0.275-0.06,0.571-0.16,0.887-0.3v0.933c-0.28,0.133-0.563,0.228-0.85,0.283
				C44.162,57.691,43.835,57.72,43.467,57.72z M43.257,52.993c-0.364,0-0.656,0.115-0.877,0.347
				c-0.219,0.23-0.351,0.567-0.393,1.011h2.451c-0.007-0.446-0.114-0.784-0.322-1.014S43.621,52.993,43.257,52.993z"/>
			<path class="st3" d="M49.61,52.124c0.231,0,0.422,0.016,0.571,0.049l-0.112,1.069c-0.163-0.039-0.332-0.059-0.508-0.059
				c-0.459,0-0.831,0.149-1.116,0.449c-0.284,0.299-0.427,0.688-0.427,1.167v2.822H46.87v-5.4h0.898l0.151,0.952h0.059
				c0.179-0.322,0.413-0.578,0.7-0.767C48.968,52.218,49.278,52.124,49.61,52.124z"/>
		</g>
	</g>
</g>
</svg>
