<?xml version="1.0" encoding="utf-8"?>
<!-- Generator: Adobe Illustrator 21.0.0, SVG Export Plug-In . SVG Version: 6.00 Build 0)  -->
<svg version="1.1" id="Calque_1" xmlns="http://www.w3.org/2000/svg" xmlns:xlink="http://www.w3.org/1999/xlink" x="0px" y="0px"
	 viewBox="0 0 68.208 68.208" style="enable-background:new 0 0 68.208 68.208;" xml:space="preserve">
<style type="text/css">
	.st0{fill:#ED1C24;}
	.st1{fill:#FFFFFF;}
</style>
<rect class="st0" width="68.208" height="68.208"/>
<g id="stop_35_">
	<path class="st1" d="M34.104,8.424c-8.793,0-15.922,7.128-15.922,15.922c0,8.793,7.128,15.922,15.922,15.922
		c8.793,0,15.922-7.128,15.922-15.922C50.026,15.552,42.898,8.424,34.104,8.424z M41.127,30.016c0,0.746-0.605,1.351-1.351,1.351
		H28.433c-0.746,0-1.351-0.605-1.351-1.351V18.674c0-0.746,0.605-1.351,1.351-1.351h11.342c0.746,0,1.351,0.605,1.351,1.351V30.016z
		"/>
	<g>
		<g>
			<path class="st1" d="M28.279,54.847c0,0.635-0.229,1.133-0.688,1.494s-1.092,0.542-1.899,0.542s-1.468-0.125-1.982-0.376v-1.104
				c0.325,0.153,0.672,0.273,1.037,0.361c0.367,0.088,0.708,0.132,1.023,0.132c0.462,0,0.803-0.088,1.023-0.264
				c0.219-0.176,0.329-0.412,0.329-0.708c0-0.267-0.101-0.493-0.303-0.679s-0.618-0.405-1.25-0.659
				c-0.651-0.264-1.11-0.564-1.377-0.903s-0.4-0.745-0.4-1.221c0-0.596,0.212-1.064,0.635-1.406s0.991-0.513,1.704-0.513
				c0.684,0,1.364,0.149,2.041,0.449l-0.371,0.952c-0.635-0.267-1.201-0.4-1.699-0.4c-0.378,0-0.664,0.082-0.859,0.246
				c-0.195,0.165-0.293,0.382-0.293,0.652c0,0.186,0.039,0.344,0.117,0.477c0.078,0.131,0.207,0.256,0.386,0.373
				s0.501,0.271,0.967,0.464c0.524,0.218,0.908,0.422,1.152,0.61s0.423,0.402,0.537,0.64S28.279,54.525,28.279,54.847z"/>
			<path class="st1" d="M31.551,55.955c0.28,0,0.56-0.044,0.84-0.132v0.864c-0.127,0.056-0.291,0.102-0.49,0.139
				c-0.201,0.038-0.408,0.057-0.623,0.057c-1.087,0-1.631-0.573-1.631-1.719v-2.91h-0.737v-0.508l0.791-0.42l0.391-1.143h0.708
				v1.201h1.538v0.869h-1.538v2.891c0,0.276,0.069,0.48,0.207,0.613C31.144,55.889,31.326,55.955,31.551,55.955z"/>
			<path class="st1" d="M38.26,54.075c0,0.882-0.227,1.57-0.679,2.065s-1.082,0.742-1.89,0.742c-0.505,0-0.95-0.114-1.338-0.342
				s-0.686-0.555-0.894-0.981s-0.313-0.921-0.313-1.484c0-0.876,0.225-1.56,0.674-2.051s1.082-0.737,1.899-0.737
				c0.781,0,1.399,0.252,1.855,0.754C38.032,52.545,38.26,53.223,38.26,54.075z M34.329,54.075c0,1.247,0.461,1.87,1.382,1.87
				c0.911,0,1.367-0.623,1.367-1.87c0-1.233-0.459-1.851-1.377-1.851c-0.481,0-0.831,0.159-1.048,0.479
				C34.437,53.023,34.329,53.48,34.329,54.075z"/>
			<path class="st1" d="M42.317,56.883c-0.684,0-1.214-0.246-1.592-0.737h-0.068c0.046,0.456,0.068,0.732,0.068,0.83v2.212h-1.147
				v-7.803h0.928c0.026,0.101,0.08,0.342,0.161,0.723h0.059c0.358-0.547,0.896-0.82,1.611-0.82c0.674,0,1.198,0.244,1.575,0.732
				c0.375,0.488,0.563,1.174,0.563,2.056s-0.191,1.57-0.573,2.065C43.519,56.636,42.991,56.883,42.317,56.883z M42.039,52.225
				c-0.456,0-0.789,0.134-0.998,0.4c-0.211,0.267-0.315,0.693-0.315,1.279v0.171c0,0.657,0.104,1.134,0.313,1.429
				c0.208,0.294,0.549,0.441,1.021,0.441c0.397,0,0.703-0.163,0.918-0.488s0.322-0.789,0.322-1.392c0-0.605-0.106-1.063-0.32-1.374
				C42.766,52.38,42.452,52.225,42.039,52.225z"/>
		</g>
	</g>
</g>
</svg>
