<?xml version="1.0" encoding="UTF-8" standalone="no"?>
<!-- Created with Inkscape (http://www.inkscape.org/) -->

<svg
   xmlns:dc="http://purl.org/dc/elements/1.1/"
   xmlns:cc="http://creativecommons.org/ns#"
   xmlns:rdf="http://www.w3.org/1999/02/22-rdf-syntax-ns#"
   xmlns:svg="http://www.w3.org/2000/svg"
   xmlns="http://www.w3.org/2000/svg"
   xmlns:sodipodi="http://sodipodi.sourceforge.net/DTD/sodipodi-0.dtd"
   xmlns:inkscape="http://www.inkscape.org/namespaces/inkscape"
   width="16"
   height="16"
   viewBox="0 0 15.999999 15.999999"
   id="svg2"
   version="1.1"
   inkscape:version="0.91 r13725"
   sodipodi:docname="favicon.svg">
  <defs
     id="defs4" />
  <sodipodi:namedview
     id="base"
     pagecolor="#ffffff"
     bordercolor="#666666"
     borderopacity="1.0"
     inkscape:pageopacity="0.0"
     inkscape:pageshadow="2"
     inkscape:zoom="26.34375"
     inkscape:cx="14.102017"
     inkscape:cy="12.725639"
     inkscape:document-units="px"
     inkscape:current-layer="layer1"
     showgrid="false"
     units="px"
     inkscape:window-width="1920"
     inkscape:window-height="1027"
     inkscape:window-x="0"
     inkscape:window-y="0"
     inkscape:window-maximized="1" />
  <metadata
     id="metadata7">
    <rdf:RDF>
      <cc:Work
         rdf:about="">
        <dc:format>image/svg+xml</dc:format>
        <dc:type
           rdf:resource="http://purl.org/dc/dcmitype/StillImage" />
        <dc:title></dc:title>
      </cc:Work>
    </rdf:RDF>
  </metadata>
  <g
     inkscape:label="Calque 1"
     inkscape:groupmode="layer"
     id="layer1"
     transform="translate(0,-1036.3622)">
    <path
       style="opacity:1;fill:#ff7f2a;fill-opacity:1;stroke:#0000ff;stroke-width:0;stroke-linecap:round;stroke-linejoin:miter;stroke-miterlimit:4;stroke-dasharray:none;stroke-dashoffset:0;stroke-opacity:1"
       d="m 7.3452109,1051.9945 c -1.1304176,-0.086 -2.2075934,-0.4379 -3.0709523,-1.0034 -0.4054557,-0.2656 -0.5464588,-0.3809 -0.9428643,-0.7713 -1.0647741,-1.0485 -1.7106313,-2.4078 -1.9875268,-4.1832 -0.097757,-0.6268 -0.097757,-2.4859 0,-3.1127 0.2318639,-1.4867 0.7156981,-2.6667 1.4945339,-3.645 0.9971403,-1.2526 2.3188689,-2.0053 3.9791549,-2.2664 0.6390526,-0.1004 1.8211766,-0.089 2.4673785,0.024 1.2766542,0.2234 2.3374812,0.7454 3.1976592,1.5733 1.190376,1.1458 1.844539,2.4926 2.12284,4.3706 0.09555,0.6448 0.09579,2.3512 4.22e-4,2.9988 -0.271732,1.8453 -0.947354,3.2431 -2.102521,4.35 -0.916517,0.8783 -2.077745,1.4282 -3.3925315,1.6065 -0.5393344,0.073 -1.2592421,0.097 -1.7655937,0.059 l 1.1e-6,0 z m 1.5059883,-1.6158 c 2.1002638,-0.3592 3.4945458,-2.1739 3.7589088,-4.8926 0.06171,-0.6346 0.02131,-2.0703 -0.07372,-2.6192 -0.247309,-1.4285 -0.768006,-2.4806 -1.627397,-3.288 -0.321247,-0.3019 -0.506803,-0.4325 -0.883846,-0.6222 -0.7446716,-0.3747 -1.6134181,-0.527 -2.4997186,-0.4384 -1.1480325,0.1148 -1.9338477,0.4834 -2.6792309,1.2566 -0.9458485,0.9811 -1.4346015,2.2833 -1.5375326,4.0964 -0.2028621,3.5734 1.2419375,6.0476 3.8025028,6.5117 0.3971788,0.072 1.3068823,0.07 1.7400305,0 z"
       id="path4698"
       inkscape:connector-curvature="0" />
  </g>
</svg>
