<?xml version="1.0" encoding="UTF-8" standalone="no"?>
<svg
   xmlns:dc="http://purl.org/dc/elements/1.1/"
   xmlns:cc="http://creativecommons.org/ns#"
   xmlns:rdf="http://www.w3.org/1999/02/22-rdf-syntax-ns#"
   xmlns:svg="http://www.w3.org/2000/svg"
   xmlns="http://www.w3.org/2000/svg"
   xmlns:sodipodi="http://sodipodi.sourceforge.net/DTD/sodipodi-0.dtd"
   xmlns:inkscape="http://www.inkscape.org/namespaces/inkscape"
   version="1.1"
   x="0px"
   y="0px"
   viewBox="0 0 1000 1000"
   enable-background="new 0 0 1000 1000"
   xml:space="preserve"
   id="svg8"
   sodipodi:docname="touch.svg"
   inkscape:version="0.92.5 (2060ec1f9f, 2020-04-08)"><metadata
   id="metadata14"><rdf:RDF><cc:Work
       rdf:about=""><dc:format>image/svg+xml</dc:format><dc:type
         rdf:resource="http://purl.org/dc/dcmitype/StillImage" /><dc:title></dc:title></cc:Work></rdf:RDF></metadata><defs
   id="defs12" /><sodipodi:namedview
   pagecolor="#ffffff"
   bordercolor="#666666"
   borderopacity="1"
   objecttolerance="10"
   gridtolerance="10"
   guidetolerance="10"
   inkscape:pageopacity="0"
   inkscape:pageshadow="2"
   inkscape:window-width="868"
   inkscape:window-height="480"
   id="namedview10"
   showgrid="false"
   inkscape:zoom="0.236"
   inkscape:cx="508.47458"
   inkscape:cy="474.57627"
   inkscape:window-x="0"
   inkscape:window-y="0"
   inkscape:window-maximized="0"
   inkscape:current-layer="g6" />
<g
   id="g6"><g
     transform="matrix(0.1,0,0,-0.1,0,512)"
     id="g4"><path
       d="m 3826,5002.5 c -275.7,-40.2 -595.5,-162.8 -829.1,-317.9 -147.4,-97.6 -411.7,-350.4 -515.1,-495.9 -467.2,-652.9 -482.5,-1539.5 -38.3,-2205.8 181.9,-271.9 463.4,-524.7 741,-666.3 l 132.1,-65.1 V 529.6 -192.3 L 3000.7,135.1 C 2738.4,409 2661.8,476 2562.3,523.9 c -243.2,120.6 -494,122.5 -744.8,5.7 -440.5,-208.7 -568.8,-752.5 -283.5,-1212 197.2,-315.9 323.6,-561 666.3,-1298.2 386.8,-831 601.2,-1259.9 794.6,-1581.6 340.8,-568.7 681.6,-938.2 1024.4,-1110.6 210.7,-105.3 235.6,-107.2 1570.2,-107.2 h 1227.4 l 189.6,93.8 c 350.4,176.1 658.7,405.9 928.7,689.3 354.2,373.4 574.4,802.3 656.8,1284.8 24.9,139.7 28.7,379.1 24.9,1485.8 L 8611,93.1 8547.8,221.4 c -74.7,151.3 -239.4,314 -396.4,386.8 -201,95.7 -476.8,97.7 -687.4,3.8 l -107.2,-47.9 -47.9,93.8 c -26.8,51.7 -91.9,137.9 -145.5,191.5 -247,247 -635.7,315.9 -938.3,162.8 l -90,-47.9 -42.1,84.2 c -53.6,111.1 -170.4,243.2 -281.5,315.9 -101.5,68.9 -302.5,135.9 -402.1,135.9 h -65.1 l 103.4,91.9 c 427,377.2 664.4,898 664.4,1459.1 0,863.6 -541.9,1600.7 -1378.6,1874.6 -262.2,86.2 -627.9,116.8 -907.5,76.6 z m 672.1,-440.4 c 520.8,-118.7 953.5,-507.4 1125.9,-1011 214.5,-633.8 -9.6,-1338.4 -555.3,-1740.5 l -114.9,-84.3 -9.6,821.4 -9.6,819.5 -61.3,126.4 C 4597.6,4050.8 3812.5,4108.2 3460.2,3597 3322.3,3397.9 3316.6,3353.8 3316.6,2482.6 v -775.5 l -61.3,38.3 c -310.2,197.2 -553.4,515.1 -666.3,875.1 -59.4,189.6 -72.8,522.7 -30.6,737.2 59.4,291 180,526.6 381,741 402.2,429 970.9,599.4 1558.7,463.4 z M 4325.8,3495.6 c 91.9,-47.9 149.4,-109.1 187.6,-199.1 24.9,-61.3 28.7,-239.3 28.7,-1346.1 0,-1418.8 -5.7,-1363.3 128.3,-1418.8 135.9,-57.4 256.6,24.9 281.5,195.3 51.7,381 526.6,497.8 748.7,183.8 57.4,-82.3 57.4,-86.2 67,-390.6 l 9.6,-306.4 63.2,-55.5 c 91.9,-82.3 214.5,-70.9 294.9,28.7 19.2,21.1 34.5,61.3 34.5,88.1 1.9,149.3 95.7,294.9 235.5,367.6 61.3,30.6 103.4,36.4 206.8,30.6 158.9,-7.7 268.1,-74.7 337,-204.9 40.2,-76.6 44,-109.2 44,-352.3 0,-289.1 17.2,-352.3 109.1,-394.4 151.3,-68.9 277.6,13.4 300.6,195.3 44,348.5 482.5,482.5 714.2,218.3 34.5,-38.3 70.9,-103.4 82.3,-141.7 15.3,-51.7 19.1,-451.9 15.3,-1346.1 l -7.7,-1273.3 -49.8,-181.9 c -63.2,-233.6 -143.6,-409.8 -275.7,-607 -220.2,-329.3 -599.3,-664.4 -982.3,-865.5 l -187.6,-97.6 H 5572.3 c -1294.4,0 -1277.1,-1.9 -1495.4,147.4 -413.6,279.5 -819.5,928.7 -1478.2,2359 -294.9,643.4 -503.6,1060.8 -643.4,1281 -120.6,193.4 -170.4,312.1 -170.4,413.6 0,283.4 325.5,484.4 570.6,352.3 44,-24.9 283.4,-256.6 551.5,-532.3 260.3,-268.1 492,-497.8 513.1,-511.3 68.9,-40.2 176.2,-30.6 235.5,21.1 l 53.6,45.9 9.6,2027.8 c 11.5,2246 0,2069.9 136,2203.9 120.6,118.7 313.9,145.5 471,65.1 z"
       id="path2"
       inkscape:connector-curvature="0" /></g></g>
</svg>